<svg version="1" xmlns="http://www.w3.org/2000/svg" width="933.333" height="933.333" viewBox="0 0 700.000000 700.000000"><path d="M214 92.9c-7.5 2.4-12.7 7.1-15.6 14-.8 2-5.4 13.7-10.1 26.1-12.7 33.5-26.3 69.4-33.6 88.5-3.6 9.3-10.2 26.7-14.6 38.5-4.5 11.8-8.5 22.4-9 23.5-.5 1.1-2.3 5.8-4.1 10.5-1.7 4.7-4.4 11.9-6 16-1.6 4.1-5.4 14.2-8.5 22.5-3.1 8.2-6.1 15.9-6.5 17-.5 1.1-8.8 22.7-18.5 48s-18.2 47.6-19 49.5c-.8 1.9-4.6 12-8.5 22.5-3.9 10.4-7.5 19.9-8 21-.5 1.1-3.8 9.4-7.2 18.5-4.5 12-6.2 17.9-6.3 21.5 0 9.8 7.1 19 16.9 21.6 8.5 2.3 19.4-2.2 23.8-9.8 1.6-2.6 15-36.9 24.3-61.8 1.8-5 3.9-10.4 4.6-12 .6-1.7 1.3-3.5 1.5-4 .1-.6 3.3-8.7 6.9-18 3.7-9.4 7-18.1 7.5-19.5 1.1-3.5 23.4-61.7 25.2-66l1.5-3.6 65.8.1h65.8l10.4 27.5c5.8 15.1 11.7 30.9 13.3 35 1.5 4.1 6.2 16.7 10.5 28s8.4 22.1 9.1 24c13.6 37 26.6 69.6 28.9 72.6 5.1 6.7 15.3 9.5 24.1 6.5 6-2 8.8-4.3 12-9.8 4.8-8 4.3-11.9-4.9-36.3-2.7-7.1-20-53-35.9-95-5.5-14.6-11-29.2-12.3-32.5-1.2-3.3-7.5-20-13.9-37-6.5-17.1-14.2-37.5-17.2-45.5-3.1-8-6.2-16.1-7-18-.7-1.9-8.4-22-16.9-44.5-8.6-22.6-15.8-41.7-16.2-42.5-.3-.8-.7-2-.9-2.5-.1-.6-4.2-11.1-8.9-23.5-4.8-12.4-10.1-26.1-11.8-30.5-2.5-6.7-3-9.5-3.1-17-.1-8-.4-9.5-2.9-13.7-4.7-8.1-16.2-12.7-24.7-9.9zm5 97.8c1.2 3.2 2.6 6.7 3.1 7.8.5 1.1 4.7 12.3 9.5 25 4.7 12.6 9.6 25.7 10.9 29 5.8 15 22.5 59.2 22.5 59.6 0 .3-21.8.5-48.5.5s-48.5-.2-48.5-.3c0-.5 9.8-26.1 11-28.8.8-1.8 8.7-22.6 29.6-77.7 4.4-11.5 8-20.8 8-20.8.1 0 1.2 2.6 2.4 5.7zM335.7 319.7c1.4 3.8 5 13.5 8 21.8 3 8.2 5.6 15.1 5.8 15.3.1.2 44.6.3 98.8.3 76.8 0 98.6.2 98.9 1.2.7 2.3.1 157.2-.6 161.1-3.7 19.3-21.2 32.5-44 33.1-4.9.1-10.7-.2-13-.7-16.3-3.6-27.5-16.4-31.2-35.5-3.6-18.1-6.7-24.1-14.7-28.1-9.3-4.6-20.8-2.2-28.1 5.8-6.2 6.8-6.6 12.5-2.6 31 5.9 26.9 19.8 48.7 39 61.4 5.8 3.8 18.5 9.1 24.1 10.1 1.9.3 4.1.8 5 1.1 4.9 1.4 26.9 2.2 32.7 1 1.5-.3 4.3-.7 6.2-1 9.9-1.4 27.6-8.8 37.9-15.9 2.5-1.7 7.3-5.9 10.7-9.3 10.1-10.2 15.4-19.1 19.8-33.4 5.1-16.3 5.3-21.1 5.2-119.5-.1-82.7-.3-91.3-1.8-94-2.6-4.8-6-8.1-10.5-10.4-4.2-2.1-4.4-2.1-126.2-2.1h-122l2.6 6.7z"/></svg>