<svg xmlns="http://www.w3.org/2000/svg" viewBox="0 0 792 306" width="792" height="306">
<style type="text/css">
	.st0{fill:#FAAE42;}
	.st1{fill:#C87A29;}
</style>
<path class="st0" d="M120,26.8c0.4,0.1,0.9,0.2,1.3,0.3c5.3,1.2,8.6,6.7,7.1,11.9c-0.2,0.7-0.2,1.3,0.1,2c7.2,19,14.5,38,21.7,57  c7.1,18.6,14.1,37.1,21.1,55.7c7.2,19.1,14.5,38.2,21.7,57.4c1.3,3.4,1,6.7-1.3,9.6c-4.1,5.4-12.7,4.7-15.9-1.4  c-0.8-1.5-1.3-3.2-1.9-4.8c-6.9-18.2-13.8-36.5-20.7-54.7c-2.3-6.2-4.7-12.4-7-18.5c-0.1-0.2-0.2-0.4-0.3-0.6c-18.8,0-37.5,0-56.4,0  c-0.6,1.6-1.3,3.2-1.9,4.9c-6.8,17.9-13.6,35.8-20.5,53.7c-2.3,6-4.6,12.1-6.9,18.1c-0.8,2-1.8,3.8-3.5,5.1  c-5.6,4.2-13.6,1.2-15-5.7c-0.1-0.3-0.3-0.6-0.4-0.9c0-0.7,0-1.4,0-2.1c0.1-0.2,0.3-0.5,0.3-0.7c0.3-0.8,0.5-1.7,0.8-2.5  c1.7-4.6,3.5-9.2,5.2-13.7c6.8-17.9,13.6-35.8,20.5-53.6c6.6-17.2,13.2-34.5,19.7-51.7c6-15.7,12-31.3,17.9-47  c1.5-3.8,2.9-7.7,4.4-11.5c1.2-3.1,3.5-5,6.7-5.8c0.5-0.1,1-0.2,1.5-0.3C119,26.8,119.5,26.8,120,26.8z M117.9,66.6  c-7,18.4-14,36.6-21,54.9c14,0,27.9,0,41.8,0C131.8,103.2,124.9,85,117.9,66.6z"/>
<path class="st1" d="M259.6,140.6c-28.3,0-56.5,0-84.8,0c-2.3-6.3-4.6-12.6-7-19c0.5,0,0.8,0,1.1,0c33.5,0,67.1,0,100.6,0  c3.2,0,6,1,8,3.6c1.4,1.8,2,3.8,2,6c0,12.3,0,24.6,0,36.9c0,11.1,0,22.2,0,33.3c0,5.4-0.5,10.7-1.9,15.9c-3,11.1-10,18.7-20.4,23.4  c-4.8,2.2-9.9,3.3-15.2,3.6c-5.7,0.3-11.2-0.3-16.6-2.2c-7.7-2.7-13.4-7.8-17.6-14.7c-3.1-5.1-5.1-10.7-6.2-16.6  c-0.3-1.6-0.5-3.3-0.8-5c-0.2-1.2,0-2.5,0.4-3.6c1.5-4.1,7-8,12.7-6.1c2.7,0.9,4.5,2.8,5.7,5.3c0.7,1.5,1.1,3.1,1.3,4.7  c0.5,4,1.6,7.7,3.8,11.1c1.2,1.9,2.8,3.5,4.8,4.7c2,1.2,4.1,2,6.4,2.3c1.4,0.2,2.8,0.1,4.2,0.2c3.1,0.1,5.9-0.8,8.8-1.8  c0.8-0.3,1.5-0.7,2.2-1.1c0.7-0.4,1.6-0.7,2.1-1.2c1.7-1.7,3.4-3.4,4.5-5.6c1.3-2.6,1.9-5.4,1.9-8.2c0-6.2,0-12.3,0-18.5  c0-0.5,0-1,0-1.5c0-14.8,0-29.6,0-44.3C259.6,141.5,259.6,141.1,259.6,140.6z"/>
<path class="st0" d="M438.8,219.1c-2.4,1.3-4.9,2.3-7.5,3.1c-4.5,1.4-9.1,2.2-13.9,2c-10-0.5-19-3.7-26.5-10.5  c-5.6-5.1-8.8-11.6-10.4-19c-0.9-4.4-1.2-8.9-1.3-13.4c0-5-0.1-9.9-0.1-14.9c0-5.1,0.3-10.3,1.4-15.3c1.5-7.3,4.7-13.8,10.3-18.9  c5.2-4.7,11.2-7.8,18-9.4c3.5-0.8,7.1-1.3,10.8-1.2c6.5,0.3,12.7,1.8,18.4,4.8c0.2,0.1,0.4,0.2,0.7,0.3c0.1-0.1,0.3-0.2,0.3-0.4  c1.5-2.5,3.7-3.9,6.4-4.5c3.3-0.7,6.3-0.1,8.9,1.9c2.1,1.6,3.1,3.7,3.4,6.2c0.1,1,0.1,1.9,0.1,2.9c0,26.9,0,53.9,0,80.8  c0,1.5-0.1,3.1-0.7,4.5c-1.2,3-3.4,4.8-6.4,5.6c-3.6,0.9-6.9,0.4-9.8-2C440.4,221.2,439.7,220.1,438.8,219.1z M399.3,173.1  C399.3,173.1,399.3,173.1,399.3,173.1c-0.1,3.2-0.1,6.4-0.1,9.6c0,2.2,0,4.3,0.3,6.4c0.8,5.3,3.5,9.3,8.1,12.1  c2.5,1.5,5.2,2.2,7.9,2.8c2.5,0.5,5.1,0.4,7.6-0.3c2.5-0.7,5-1.3,7.1-2.9c0.5-0.3,1.1-0.5,1.5-0.9c0.9-0.9,1.9-1.9,2.7-2.9  c2.3-2.8,3.3-6.2,3.5-9.7c0.1-2,0.1-4,0.1-6.1c0-6.3,0-12.5-0.1-18.8c0-1.8,0-3.6-0.2-5.3c-0.5-4.6-2.9-8.1-6.2-11.2  c-0.1-0.1-0.3-0.2-0.4-0.3c-2.1-1.4-4.4-2.4-6.9-3.1c-3-0.8-6-1-9-0.5c-1.3,0.2-2.6,0.6-3.9,1c-2.9,0.9-5.4,2.4-7.5,4.7  c-3.1,3.4-4.6,7.3-4.6,11.8C399.3,164,399.3,168.6,399.3,173.1z"/>
<path class="st0" d="M617.5,132.3c1.3-2.5,3.4-4.1,6.1-4.8c2.6-0.7,5.1-0.5,7.5,0.6c3.4,1.6,5.1,4.4,5.4,8.1c0,0.2,0,0.5,0,0.7  c0,27.6,0,55.3,0,82.9c0,1.4-0.2,2.7-0.7,4c-0.9,2.3-2.6,4-4.9,5c-3.8,1.5-7.5,1.2-10.9-1.2c-0.8-0.6-1.4-1.4-2-2.2  c-0.2-0.2-0.4-0.6-0.6-0.9c-0.9,0.4-1.7,0.8-2.5,1.2c-5,2.3-10.3,3.7-15.8,3.9c-10.8,0.4-20.5-2.7-28.8-9.7  c-5.5-4.6-8.9-10.5-10.7-17.4c-1-3.8-1.6-7.7-1.7-11.6c-0.1-7.4-0.2-14.9-0.1-22.3c0.1-5.4,0.7-10.7,2.2-15.9  c2.6-8.6,7.9-15.2,15.6-19.7c4.9-2.9,10.2-4.7,15.9-5.5c8.8-1.2,17.2,0.5,25.1,4.4c0.2,0.1,0.4,0.2,0.6,0.3  C617.3,132.3,617.3,132.3,617.5,132.3z M577.7,178.3C577.7,178.3,577.7,178.3,577.7,178.3c-0.1,1.4-0.1,2.9-0.1,4.3  c0.1,3.6,0,7.3,0.2,10.9c0.2,5,2.7,8.8,6.3,12.1c0.1,0.1,0.3,0.2,0.5,0.3c2.2,1.4,4.6,2.4,7.1,3.1c2.5,0.7,5,0.9,7.5,0.6  c2.3-0.2,4.6-0.9,6.8-1.8c1.4-0.6,2.8-1.3,3.9-2.3c1.9-1.7,3.6-3.6,4.7-5.9c1.3-2.7,1.8-5.6,1.8-8.6c0-8.5,0-16.9,0-25.4  c0-0.7-0.1-1.4-0.1-2.1c-0.3-5-2.7-8.9-6.3-12.2c-0.2-0.2-0.4-0.3-0.6-0.4c-2.2-1.4-4.6-2.5-7.2-3.1c-2.7-0.7-5.4-1-8.1-0.5  c-1.5,0.3-3,0.7-4.5,1.2c-2.9,0.9-5.4,2.3-7.3,4.7c-0.2,0.2-0.4,0.4-0.6,0.6c-1.4,1.6-2.4,3.3-3.1,5.3c-0.7,2-1,4.1-1,6.3  C577.7,169.6,577.7,174,577.7,178.3z"/>
<path class="st1" d="M348.9,186.4c0-7.6,0-15.2,0-22.8c0-2.4-0.1-4.8-0.4-7.2c-0.3-2.8-1.5-5.3-3.3-7.5c-0.8-1-1.7-1.9-2.6-2.8  c-0.2-0.2-0.3-0.3-0.5-0.5c-4.4-2.8-9.2-4.3-14.5-3.9c-2.2,0.2-4.2,0.9-6.3,1.5c-1.8,0.6-3.4,1.4-4.8,2.6c-2.5,2.1-4.5,4.6-5.5,7.8  c-0.6,1.8-1,3.7-1,5.6c0,5.7,0,11.3,0,17c0,12.6,0,25.2,0,37.8c0,0.4,0,0.8,0,1.2c-0.1,0.7-0.2,1.4-0.3,2.1  c-0.7,2.7-2.3,4.6-4.9,5.8c-3.3,1.5-6.7,1.5-10-0.2c-3-1.6-4.5-4.1-4.8-7.4c0-0.5,0-1,0-1.4c0-15.7,0-31.5,0-47.2  c0-4.4,0.2-8.8,0.9-13.1c1.1-7.2,3.6-13.8,8.5-19.3c4.3-4.8,9.6-8.2,15.7-10.3c5.2-1.9,10.7-2.8,16.2-2.5  c10.3,0.7,19.5,4.2,26.9,11.6c4.6,4.6,7.4,10.3,8.9,16.6c0.9,3.8,1.3,7.7,1.5,11.6c0.1,3.6,0.2,7.2,0.2,10.8c0,14,0,27.9,0,41.9  c0,0.9-0.1,1.9-0.3,2.8c-0.9,4.3-4.4,6.6-8,7.1c-1.7,0.3-3.3,0.2-4.9-0.3c-4.3-1.2-6.8-4.6-6.9-9.2c0-0.3,0-0.5,0-0.8  c0-9.1,0-18.2,0-27.4C348.9,186.4,348.9,186.4,348.9,186.4z"/>
<path class="st1" d="M705.7,191.9c0-4.3,0-8.6,0-12.9c0-4,0.1-8,0-12c0-2.3-0.1-4.7-0.7-6.9c-0.7-2.3-1.8-4.4-3.3-6.3  c-2.6-3.3-6.2-5-10.1-6c-2.5-0.7-5-0.8-7.5-0.6c-2.4,0.3-4.7,0.9-6.9,1.9c-1.3,0.6-2.7,1.2-3.7,2.2c-2.1,1.9-4,4-5.1,6.7  c-0.9,2.2-1.4,4.5-1.4,6.9c0,5.3,0,10.6,0,15.9c0,11.1,0,22.3,0,33.4c0,1.9,0,3.8,0,5.8c0.1,6.4-4.8,9.6-9.6,9.7  c-3,0.1-5.7-0.8-7.8-2.9c-1.5-1.5-2.3-3.5-2.5-5.6c-0.1-0.7-0.1-1.4-0.1-2.1c0-15.1,0-30.2,0-45.4c0-3.9,0.1-7.8,0.5-11.7  c0.5-5,1.6-9.8,3.8-14.3c3.4-7,8.7-12.1,15.5-15.7c5.4-2.8,11.2-4.5,17.3-4.8c10.9-0.5,20.6,2.6,29,9.6c5.6,4.7,9.1,10.8,10.9,17.9  c1.2,4.9,1.7,9.8,1.7,14.9c0,16.9,0,33.9,0,50.8c0,5-3.7,8.9-8.9,9.3c-1.3,0.1-2.6,0-3.9-0.3c-4.3-1.2-6.9-4.3-7.2-8.8  c0-0.5,0-1,0-1.5C705.7,210,705.7,201,705.7,191.9C705.7,191.9,705.7,191.9,705.7,191.9z"/>
<path class="st1" d="M488.6,186.5c0,9.1,0,18.2,0,27.3c0,1,0,2.1-0.2,3.1c-0.6,3.2-2.5,5.4-5.6,6.6c-2.8,1.1-5.6,1.1-8.3,0.1  c-3.8-1.5-5.7-4.4-5.9-8.5c0-0.3,0-0.5,0-0.8c0-16,0-32,0-48c0-4.8,0.3-9.6,1.2-14.3c1.6-8.5,5.4-15.7,12.2-21.2  c4.6-3.7,9.8-6.2,15.5-7.7c3.7-0.9,7.4-1.5,11.2-1.4c7.1,0.2,13.9,2,20.1,5.5c9.1,5.2,14.8,13,17.1,23.3c1.1,4.9,1.4,10,1.5,15  c0,1.3,0.1,2.7-0.1,4c-0.6,3.8-2.8,6.3-6.5,7.5c-2.4,0.8-4.7,0.7-7.1-0.1c-4-1.3-6.4-4.9-6.3-9.1c0-2.8,0-5.7,0-8.5  c0-2-0.4-4-1.1-5.9c-0.8-2.2-2.2-4.1-3.7-5.9c-1.9-2.1-4.3-3.5-7-4.4c-1.4-0.5-2.8-0.8-4.2-1.1c-3-0.6-6-0.3-8.9,0.5  c-2.5,0.7-4.8,1.7-7,3.1c-0.1,0.1-0.3,0.2-0.4,0.3c-3.7,3.4-6.2,7.5-6.3,12.7c-0.1,5.7-0.1,11.4-0.1,17.1  C488.5,179.2,488.5,182.9,488.6,186.5C488.6,186.5,488.6,186.5,488.6,186.5z"/>
</svg>