<svg xmlns="http://www.w3.org/2000/svg" viewBox="25 0 300 275" height="100" width="100">
<style type="text/css">
	.st0{fill:#FAAE42;}
	.st1{fill:#C87A29;}
</style>
    <path class="st0" d="M120,26.8c0.4,0.1,0.9,0.2,1.3,0.3c5.3,1.2,8.6,6.7,7.1,11.9c-0.2,0.7-0.2,1.3,0.1,2c7.2,19,14.5,38,21.7,57  c7.1,18.6,14.1,37.1,21.1,55.7c7.2,19.1,14.5,38.2,21.7,57.4c1.3,3.4,1,6.7-1.3,9.6c-4.1,5.4-12.7,4.7-15.9-1.4  c-0.8-1.5-1.3-3.2-1.9-4.8c-6.9-18.2-13.8-36.5-20.7-54.7c-2.3-6.2-4.7-12.4-7-18.5c-0.1-0.2-0.2-0.4-0.3-0.6c-18.8,0-37.5,0-56.4,0  c-0.6,1.6-1.3,3.2-1.9,4.9c-6.8,17.9-13.6,35.8-20.5,53.7c-2.3,6-4.6,12.1-6.9,18.1c-0.8,2-1.8,3.8-3.5,5.1  c-5.6,4.2-13.6,1.2-15-5.7c-0.1-0.3-0.3-0.6-0.4-0.9c0-0.7,0-1.4,0-2.1c0.1-0.2,0.3-0.5,0.3-0.7c0.3-0.8,0.5-1.7,0.8-2.5  c1.7-4.6,3.5-9.2,5.2-13.7c6.8-17.9,13.6-35.8,20.5-53.6c6.6-17.2,13.2-34.5,19.7-51.7c6-15.7,12-31.3,17.9-47  c1.5-3.8,2.9-7.7,4.4-11.5c1.2-3.1,3.5-5,6.7-5.8c0.5-0.1,1-0.2,1.5-0.3C119,26.8,119.5,26.8,120,26.8z M117.9,66.6  c-7,18.4-14,36.6-21,54.9c14,0,27.9,0,41.8,0C131.8,103.2,124.9,85,117.9,66.6z"/><path class="st1" d="M259.6,140.6c-28.3,0-56.5,0-84.8,0c-2.3-6.3-4.6-12.6-7-19c0.5,0,0.8,0,1.1,0c33.5,0,67.1,0,100.6,0  c3.2,0,6,1,8,3.6c1.4,1.8,2,3.8,2,6c0,12.3,0,24.6,0,36.9c0,11.1,0,22.2,0,33.3c0,5.4-0.5,10.7-1.9,15.9c-3,11.1-10,18.7-20.4,23.4  c-4.8,2.2-9.9,3.3-15.2,3.6c-5.7,0.3-11.2-0.3-16.6-2.2c-7.7-2.7-13.4-7.8-17.6-14.7c-3.1-5.1-5.1-10.7-6.2-16.6  c-0.3-1.6-0.5-3.3-0.8-5c-0.2-1.2,0-2.5,0.4-3.6c1.5-4.1,7-8,12.7-6.1c2.7,0.9,4.5,2.8,5.7,5.3c0.7,1.5,1.1,3.1,1.3,4.7  c0.5,4,1.6,7.7,3.8,11.1c1.2,1.9,2.8,3.5,4.8,4.7c2,1.2,4.1,2,6.4,2.3c1.4,0.2,2.8,0.1,4.2,0.2c3.1,0.1,5.9-0.8,8.8-1.8  c0.8-0.3,1.5-0.7,2.2-1.1c0.7-0.4,1.6-0.7,2.1-1.2c1.7-1.7,3.4-3.4,4.5-5.6c1.3-2.6,1.9-5.4,1.9-8.2c0-6.2,0-12.3,0-18.5  c0-0.5,0-1,0-1.5c0-14.8,0-29.6,0-44.3C259.6,141.5,259.6,141.1,259.6,140.6z"/>



</svg>