<?xml version="1.0" encoding="utf-8"?>
<!-- Generator: Adobe Illustrator 22.0.0, SVG Export Plug-In . SVG Version: 6.00 Build 0)  -->
<svg version="1.1" id="Layer_1" xmlns="http://www.w3.org/2000/svg" xmlns:xlink="http://www.w3.org/1999/xlink" x="0px" y="0px"
	 viewBox="0 0 800 50" style="enable-background:new 0 0 800 50;" xml:space="preserve">
<style type="text/css">
	.st0{fill:#939598;}
	.st1{fill:#D1D3D4;}
	.st2{fill:#A7A9AC;}
	.st3{fill:#808080;}
</style>
<g>
	<polygon class="st0" points="27.1,38.1 27.1,41.9 23.4,41.9 26.1,39.2 24.4,39.2 24.4,40.7 	"/>
	<polygon class="st1" points="27.1,38.1 26.6,38.7 25.3,40 24,41.2 23.4,41.9 23.4,38.1 	"/>
	<rect x="24" y="38.7" class="st2" width="2.6" height="2.6"/>
	<polygon class="st0" points="35.6,41.2 35.6,50 14.9,50 17.6,47.3 32.9,47.3 32.9,43.9 	"/>
	<polygon class="st1" points="35.6,41.2 32.9,43.9 17.6,43.9 17.6,47.3 14.9,50 14.9,41.2 	"/>
	<rect x="15.5" y="41.8" class="st2" width="19.6" height="7.6"/>
	<g>
		<rect x="25.1" y="27.4" class="st1" width="0.3" height="5"/>
		<path class="st2" d="M34.9,32c0,0.3,0,0.5-0.1,0.8c-0.5,3-3.6,5.4-7.7,5.9c-0.2,0-0.3,0-0.5,0.1c0,0-0.1,0-0.1,0
			c-0.4,0-0.9,0.1-1.3,0.1s-0.9,0-1.3-0.1c-0.1,0-0.2,0-0.3,0c-0.1,0-0.2,0-0.2,0c-2.4-0.3-4.5-1.3-6-2.7c-1.2-1.1-1.8-2.5-1.8-4
			H34.9z"/>
		<path class="st1" d="M24,38v0.8c-0.1,0-0.2,0-0.3,0c-0.1,0-0.2,0-0.2,0c-0.2,0-0.4-0.1-0.7-0.1c-0.1,0-0.3-0.1-0.4-0.1
			c-0.2,0-0.4-0.1-0.6-0.1c-0.2-0.1-0.4-0.1-0.6-0.2c-0.4-0.1-0.8-0.3-1.2-0.5c-0.1-0.1-0.3-0.1-0.4-0.2c-0.6-0.3-1.2-0.7-1.7-1.2
			c-0.2-0.1-0.3-0.3-0.4-0.4c-0.2-0.2-0.4-0.4-0.5-0.6c0,0-0.1-0.1-0.1-0.1c0,0,0,0,0,0c-0.7-1-1.1-2-1.1-3.2c1.2,4.7,6.7,5.8,8,6h0
			l0.2,0C23.9,38,23.9,38,24,38z"/>
		<circle class="st2" cx="25.3" cy="27.4" r="0.3"/>
		<path class="st3" d="M34.9,32c0,3.3-3.4,6.1-7.8,6.7c-0.1,0-0.3,0-0.5,0.1c0,0-0.1,0-0.1,0c-0.4,0-0.9,0.1-1.3,0.1s-0.9,0-1.3-0.1
			V38h0c1.2,0.2,2.9,0.2,4.8-0.5c0.8-0.3,4.1-1.4,5.1-4.3c0.2-0.5,0.2-1,0.2-1.3H34.9z"/>
	</g>
</g>
<g>
	<polygon class="st0" points="77.1,38 77.1,41.8 73.3,41.8 76,39.1 74.4,39.1 74.4,40.7 	"/>
	<polygon class="st1" points="77.1,38 76.5,38.6 75.2,39.9 73.9,41.1 73.3,41.8 73.3,38 	"/>
	<rect x="73.9" y="38.6" class="st2" width="2.6" height="2.6"/>
	<polygon class="st0" points="85.6,41.1 85.6,49.9 64.8,49.9 67.5,47.3 82.9,47.3 82.9,43.8 	"/>
	<polygon class="st1" points="85.6,41.1 82.9,43.8 67.5,43.8 67.5,47.3 64.8,49.9 64.8,41.1 	"/>
	<rect x="65.4" y="41.8" class="st2" width="19.6" height="7.6"/>
	<g>
		
			<rect x="74.4" y="27.6" transform="matrix(0.9967 -8.133598e-02 8.133598e-02 0.9967 -2.2014 6.1618)" class="st1" width="0.3" height="4.9"/>
		<path class="st2" d="M84.2,31.4c0,0.3,0,0.5,0,0.8c-0.3,3-3.2,5.6-7.1,6.4c-0.1,0-0.3,0.1-0.4,0.1c0,0-0.1,0-0.1,0
			c-0.4,0.1-0.9,0.1-1.3,0.2c-0.4,0-0.9,0-1.3,0c-0.1,0-0.2,0-0.3,0c-0.1,0-0.2,0-0.2,0c-2.4-0.1-4.6-0.9-6.1-2.2
			c-1.2-1-2-2.3-2.1-3.8L84.2,31.4z"/>
		<path class="st1" d="M73.9,38.2L74,39c-0.1,0-0.2,0-0.3,0c-0.1,0-0.2,0-0.2,0c-0.2,0-0.4,0-0.6,0c-0.1,0-0.3,0-0.4-0.1
			c-0.2,0-0.4-0.1-0.6-0.1c-0.2,0-0.4-0.1-0.6-0.1c-0.4-0.1-0.9-0.2-1.3-0.4c-0.2,0-0.3-0.1-0.4-0.2c-0.7-0.3-1.3-0.6-1.8-1
			c-0.2-0.1-0.3-0.2-0.5-0.4c-0.2-0.2-0.4-0.3-0.5-0.5c0,0-0.1-0.1-0.1-0.1c0,0,0,0,0,0c-0.8-0.9-1.3-1.9-1.4-3.1
			c1.5,4.6,7.1,5.2,8.4,5.3l0,0L73.9,38.2C73.8,38.2,73.9,38.2,73.9,38.2z"/>
		<circle class="st2" cx="74.3" cy="27.7" r="0.3"/>
		<path class="st3" d="M84.2,31.4c0.3,3.3-2.8,6.3-7.1,7.2c-0.1,0-0.3,0.1-0.4,0.1c0,0-0.1,0-0.1,0c-0.4,0.1-0.9,0.1-1.3,0.2
			c-0.4,0-0.9,0.1-1.3,0l-0.1-0.7l0,0c1.2,0.1,2.9,0,4.7-0.8c0.8-0.4,4-1.7,4.7-4.7c0.1-0.5,0.1-1,0.1-1.3L84.2,31.4z"/>
	</g>
</g>
<g>
	<polygon class="st0" points="127,37.9 127,41.7 123.3,41.7 126,39 124.3,39 124.3,40.6 	"/>
	<polygon class="st1" points="127,37.9 126.4,38.5 125.1,39.8 123.8,41.1 123.3,41.7 123.3,37.9 	"/>
	<rect x="123.8" y="38.5" class="st2" width="2.6" height="2.6"/>
	<polygon class="st0" points="135.5,41.1 135.5,49.9 114.8,49.9 117.5,47.2 132.8,47.2 132.8,43.7 	"/>
	<polygon class="st1" points="135.5,41.1 132.8,43.7 117.5,43.7 117.5,47.2 114.8,49.9 114.8,41.1 	"/>
	<rect x="115.3" y="41.7" class="st2" width="19.6" height="7.6"/>
	<g>
		
			<rect x="123.7" y="27.8" transform="matrix(0.9866 -0.1632 0.1632 0.9866 -3.2841 20.6153)" class="st1" width="0.3" height="4.9"/>
		<path class="st2" d="M133.5,30.8c0,0.3,0.1,0.5,0.1,0.8c0,3-2.7,5.8-6.6,7c-0.1,0.1-0.3,0.1-0.4,0.1c0,0-0.1,0-0.1,0
			c-0.4,0.1-0.8,0.2-1.3,0.3c-0.4,0.1-0.9,0.1-1.3,0.1c-0.1,0-0.2,0-0.3,0c-0.1,0-0.2,0-0.2,0c-2.4,0.1-4.6-0.5-6.2-1.7
			c-1.3-0.9-2.2-2.2-2.4-3.6L133.5,30.8z"/>
		<path class="st1" d="M123.9,38.4l0.1,0.7c-0.1,0-0.2,0-0.3,0c-0.1,0-0.2,0-0.2,0c-0.2,0-0.4,0-0.6,0c-0.1,0-0.3,0-0.4,0
			c-0.2,0-0.4,0-0.6,0c-0.2,0-0.4,0-0.6-0.1c-0.4-0.1-0.9-0.2-1.3-0.3c-0.2,0-0.3-0.1-0.5-0.1c-0.7-0.2-1.3-0.5-1.9-0.9
			c-0.2-0.1-0.3-0.2-0.5-0.3c-0.2-0.2-0.4-0.3-0.6-0.5c0,0-0.1-0.1-0.1-0.1c0,0,0,0,0,0c-0.9-0.8-1.4-1.8-1.6-2.9
			c1.9,4.4,7.4,4.6,8.8,4.5l0,0L123.9,38.4C123.8,38.4,123.8,38.4,123.9,38.4z"/>
		<circle class="st2" cx="123.4" cy="27.9" r="0.3"/>
		<path class="st3" d="M133.5,30.8c0.5,3.2-2.3,6.5-6.5,7.8c-0.1,0.1-0.3,0.1-0.4,0.1c0,0-0.1,0-0.1,0c-0.4,0.1-0.8,0.2-1.3,0.3
			c-0.4,0.1-0.9,0.1-1.3,0.1l-0.1-0.7l0,0c1.2,0,2.9-0.3,4.6-1.2c0.8-0.4,3.8-2,4.3-5c0.1-0.5,0.1-1,0-1.3L133.5,30.8z"/>
	</g>
</g>
<g>
	<polygon class="st0" points="177.1,37.8 177.1,41.6 173.4,41.6 176.1,39 174.4,39 174.4,40.5 	"/>
	<polygon class="st1" points="177.1,37.8 176.6,38.5 175.3,39.8 174,41 173.4,41.6 173.4,37.8 	"/>
	<rect x="174" y="38.5" class="st2" width="2.6" height="2.6"/>
	<polygon class="st0" points="185.6,41 185.6,49.8 164.9,49.8 167.6,47.1 182.9,47.1 182.9,43.7 	"/>
	<polygon class="st1" points="185.6,41 182.9,43.7 167.6,43.7 167.6,47.1 164.9,49.8 164.9,41 	"/>
	<rect x="165.5" y="41.6" class="st2" width="19.6" height="7.6"/>
	<g>
		<rect x="173.1" y="28" transform="matrix(0.9698 -0.244 0.244 0.9698 -2.2014 43.198)" class="st1" width="0.3" height="4.9"/>
		<path class="st2" d="M183,30.2c0.1,0.3,0.1,0.5,0.1,0.8c0.2,3-2.2,6-6,7.5c-0.1,0.1-0.3,0.1-0.4,0.2c0,0-0.1,0-0.1,0
			c-0.4,0.2-0.8,0.3-1.2,0.4c-0.4,0.1-0.8,0.2-1.3,0.2c-0.1,0-0.2,0-0.3,0c-0.1,0-0.2,0-0.2,0c-2.4,0.3-4.7-0.2-6.4-1.1
			c-1.4-0.8-2.4-2-2.7-3.4L183,30.2z"/>
		<path class="st1" d="M174,38.6l0.2,0.7c-0.1,0-0.2,0-0.3,0c-0.1,0-0.2,0-0.2,0c-0.2,0-0.4,0.1-0.6,0.1c-0.1,0-0.3,0-0.4,0
			c-0.2,0-0.4,0-0.6,0c-0.2,0-0.4,0-0.6,0c-0.4,0-0.9-0.1-1.3-0.2c-0.2,0-0.3-0.1-0.5-0.1c-0.7-0.2-1.3-0.4-1.9-0.7
			c-0.2-0.1-0.4-0.2-0.5-0.3c-0.2-0.1-0.4-0.3-0.6-0.4c0,0-0.1-0.1-0.1-0.1c0,0,0,0,0,0c-0.9-0.7-1.6-1.7-1.9-2.8
			c2.3,4.2,7.8,4,9.2,3.8l0,0L174,38.6C173.9,38.6,173.9,38.6,174,38.6z"/>
		<circle class="st2" cx="172.7" cy="28.1" r="0.3"/>
		<path class="st3" d="M183,30.2c0.8,3.2-1.7,6.7-5.9,8.3c-0.1,0.1-0.3,0.1-0.4,0.2c0,0-0.1,0-0.1,0c-0.4,0.2-0.8,0.3-1.2,0.4
			c-0.4,0.1-0.8,0.2-1.3,0.2l-0.2-0.7l0,0c1.2-0.1,2.8-0.5,4.5-1.6c0.7-0.5,3.6-2.4,3.8-5.4c0-0.5,0-1-0.1-1.3L183,30.2z"/>
	</g>
</g>
<g>
	<polygon class="st0" points="227.2,37.8 227.2,41.6 223.5,41.6 226.2,38.9 224.6,38.9 224.6,40.4 	"/>
	<polygon class="st1" points="227.2,37.8 226.7,38.4 225.4,39.7 224.1,40.9 223.5,41.6 223.5,37.8 	"/>
	<rect x="224.1" y="38.4" class="st2" width="2.6" height="2.6"/>
	<polygon class="st0" points="235.7,40.9 235.7,49.7 215,49.7 217.7,47 233.1,47 233.1,43.6 	"/>
	<polygon class="st1" points="235.7,40.9 233.1,43.6 217.7,43.6 217.7,47 215,49.7 215,40.9 	"/>
	<rect x="215.6" y="41.5" class="st2" width="19.6" height="7.6"/>
	<g>
		<rect x="222.6" y="28.2" transform="matrix(0.9467 -0.3221 0.3221 0.9467 1.9869 73.3643)" class="st1" width="0.3" height="5"/>
		<path class="st2" d="M232.5,29.6c0.1,0.3,0.2,0.5,0.2,0.8c0.5,3-1.7,6.2-5.4,8.1c-0.1,0.1-0.3,0.1-0.4,0.2c0,0-0.1,0-0.1,0
			c-0.4,0.2-0.8,0.3-1.2,0.5c-0.4,0.1-0.8,0.3-1.3,0.4c-0.1,0-0.2,0-0.3,0.1c-0.1,0-0.2,0-0.2,0c-2.4,0.5-4.7,0.2-6.5-0.6
			c-1.5-0.7-2.6-1.8-3-3.2L232.5,29.6z"/>
		<path class="st1" d="M224.1,38.8l0.2,0.7c-0.1,0-0.2,0-0.3,0.1c-0.1,0-0.2,0-0.2,0c-0.2,0-0.4,0.1-0.6,0.1c-0.1,0-0.3,0-0.4,0
			c-0.2,0-0.4,0-0.6,0.1c-0.2,0-0.4,0-0.6,0c-0.5,0-0.9,0-1.3-0.1c-0.2,0-0.3,0-0.5-0.1c-0.7-0.1-1.4-0.3-2-0.5
			c-0.2-0.1-0.4-0.1-0.5-0.2c-0.2-0.1-0.5-0.2-0.7-0.4c-0.1,0-0.1-0.1-0.1-0.1c0,0,0,0,0,0c-1-0.7-1.7-1.6-2.1-2.7
			c2.6,4.1,8.2,3.3,9.5,3.1l0,0L224.1,38.8C224,38.8,224.1,38.8,224.1,38.8z"/>
		<circle class="st2" cx="221.9" cy="28.3" r="0.3"/>
		<path class="st3" d="M232.5,29.6c1.1,3.2-1.2,6.9-5.2,8.9c-0.1,0.1-0.3,0.1-0.4,0.2c0,0-0.1,0-0.1,0c-0.4,0.2-0.8,0.3-1.2,0.5
			c-0.4,0.1-0.8,0.3-1.3,0.4l-0.2-0.7l0,0c1.2-0.2,2.8-0.8,4.4-2c0.7-0.5,3.4-2.7,3.4-5.7c0-0.5-0.1-1-0.2-1.3L232.5,29.6z"/>
	</g>
</g>
<g>
	<polygon class="st0" points="277.1,37.8 277.1,41.6 273.3,41.6 276,39 274.4,39 274.4,40.5 	"/>
	<polygon class="st1" points="277.1,37.8 276.5,38.5 275.2,39.8 273.9,41 273.3,41.6 273.3,37.8 	"/>
	<rect x="273.9" y="38.5" class="st2" width="2.6" height="2.6"/>
	<polygon class="st0" points="285.6,41 285.6,49.8 264.8,49.8 267.5,47.1 282.9,47.1 282.9,43.7 	"/>
	<polygon class="st1" points="285.6,41 282.9,43.7 267.5,43.7 267.5,47.1 264.8,49.8 264.8,41 	"/>
	<rect x="265.4" y="41.6" class="st2" width="19.6" height="7.6"/>
	<g>
		<rect x="273" y="28" transform="matrix(0.9698 -0.244 0.244 0.9698 0.8199 67.5826)" class="st1" width="0.3" height="4.9"/>
		<path class="st2" d="M283,30.2c0.1,0.3,0.1,0.5,0.1,0.8c0.2,3-2.2,6-6,7.5c-0.1,0.1-0.3,0.1-0.4,0.2c0,0-0.1,0-0.1,0
			c-0.4,0.2-0.8,0.3-1.2,0.4s-0.8,0.2-1.3,0.2c-0.1,0-0.2,0-0.3,0c-0.1,0-0.2,0-0.2,0c-2.4,0.3-4.7-0.2-6.4-1.1
			c-1.4-0.8-2.4-2-2.7-3.4L283,30.2z"/>
		<path class="st1" d="M273.9,38.6l0.2,0.7c-0.1,0-0.2,0-0.3,0c-0.1,0-0.2,0-0.2,0c-0.2,0-0.4,0.1-0.6,0.1c-0.1,0-0.3,0-0.4,0
			c-0.2,0-0.4,0-0.6,0c-0.2,0-0.4,0-0.6,0c-0.4,0-0.9-0.1-1.3-0.2c-0.2,0-0.3-0.1-0.5-0.1c-0.7-0.2-1.3-0.4-1.9-0.7
			c-0.2-0.1-0.4-0.2-0.5-0.3c-0.2-0.1-0.4-0.3-0.6-0.4c0,0-0.1-0.1-0.1-0.1c0,0,0,0,0,0c-0.9-0.7-1.6-1.7-1.9-2.8
			c2.3,4.2,7.8,4,9.2,3.8l0,0L273.9,38.6C273.8,38.6,273.9,38.6,273.9,38.6z"/>
		<circle class="st2" cx="272.6" cy="28.1" r="0.3"/>
		<path class="st3" d="M283,30.2c0.8,3.2-1.7,6.7-5.9,8.3c-0.1,0.1-0.3,0.1-0.4,0.2c0,0-0.1,0-0.1,0c-0.4,0.2-0.8,0.3-1.2,0.4
			s-0.8,0.2-1.3,0.2l-0.2-0.7l0,0c1.2-0.1,2.8-0.5,4.5-1.6c0.7-0.5,3.6-2.4,3.8-5.4c0-0.5,0-1-0.1-1.3L283,30.2z"/>
	</g>
</g>
<g>
	<polygon class="st0" points="326.9,37.9 326.9,41.7 323.2,41.7 325.8,39 324.2,39 324.2,40.6 	"/>
	<polygon class="st1" points="326.9,37.9 326.3,38.5 325,39.8 323.7,41.1 323.2,41.7 323.2,37.9 	"/>
	<rect x="323.7" y="38.5" class="st2" width="2.6" height="2.6"/>
	<polygon class="st0" points="335.4,41.1 335.4,49.8 314.7,49.8 317.3,47.2 332.7,47.2 332.7,43.7 	"/>
	<polygon class="st1" points="335.4,41.1 332.7,43.7 317.3,43.7 317.3,47.2 314.7,49.8 314.7,41.1 	"/>
	<rect x="315.2" y="41.7" class="st2" width="19.6" height="7.6"/>
	<g>
		
			<rect x="323.5" y="27.8" transform="matrix(0.9866 -0.1632 0.1632 0.9866 -0.6027 53.2391)" class="st1" width="0.3" height="4.9"/>
		<path class="st2" d="M333.4,30.8c0,0.3,0.1,0.5,0.1,0.8c0,3-2.7,5.8-6.6,7c-0.1,0.1-0.3,0.1-0.4,0.1c0,0-0.1,0-0.1,0
			c-0.4,0.1-0.8,0.2-1.3,0.3c-0.4,0.1-0.9,0.1-1.3,0.1c-0.1,0-0.2,0-0.3,0c-0.1,0-0.2,0-0.2,0c-2.4,0.1-4.6-0.5-6.2-1.7
			c-1.3-0.9-2.2-2.2-2.4-3.6L333.4,30.8z"/>
		<path class="st1" d="M323.7,38.4l0.1,0.7c-0.1,0-0.2,0-0.3,0c-0.1,0-0.2,0-0.2,0c-0.2,0-0.4,0-0.6,0c-0.1,0-0.3,0-0.4,0
			c-0.2,0-0.4,0-0.6,0c-0.2,0-0.4,0-0.6-0.1c-0.4-0.1-0.9-0.2-1.3-0.3c-0.2,0-0.3-0.1-0.5-0.1c-0.7-0.2-1.3-0.5-1.9-0.9
			c-0.2-0.1-0.3-0.2-0.5-0.3c-0.2-0.2-0.4-0.3-0.6-0.5c0,0-0.1-0.1-0.1-0.1c0,0,0,0,0,0c-0.9-0.8-1.4-1.8-1.6-2.9
			c1.9,4.4,7.4,4.6,8.8,4.5l0,0L323.7,38.4C323.7,38.4,323.7,38.4,323.7,38.4z"/>
		<circle class="st2" cx="323.3" cy="27.9" r="0.3"/>
		<path class="st3" d="M333.4,30.8c0.5,3.2-2.3,6.5-6.5,7.8c-0.1,0.1-0.3,0.1-0.4,0.1c0,0-0.1,0-0.1,0c-0.4,0.1-0.8,0.2-1.3,0.3
			c-0.4,0.1-0.9,0.1-1.3,0.1l-0.1-0.7l0,0c1.2,0,2.9-0.3,4.6-1.2c0.8-0.4,3.8-2,4.3-5c0.1-0.5,0.1-1,0-1.3L333.4,30.8z"/>
	</g>
</g>
<g>
	<polygon class="st0" points="376.9,38 376.9,41.8 373.1,41.8 375.8,39.1 374.2,39.1 374.2,40.7 	"/>
	<polygon class="st1" points="376.9,38 376.3,38.6 375,39.9 373.7,41.1 373.1,41.8 373.1,38 	"/>
	<rect x="373.7" y="38.6" class="st2" width="2.6" height="2.6"/>
	<polygon class="st0" points="385.4,41.1 385.4,49.9 364.6,49.9 367.3,47.2 382.7,47.2 382.7,43.8 	"/>
	<polygon class="st1" points="385.4,41.1 382.7,43.8 367.3,43.8 367.3,47.2 364.6,49.9 364.6,41.1 	"/>
	<rect x="365.2" y="41.8" class="st2" width="19.6" height="7.6"/>
	<g>
		
			<rect x="374.2" y="27.6" transform="matrix(0.9967 -8.133598e-02 8.133598e-02 0.9967 -1.2074 30.5464)" class="st1" width="0.3" height="4.9"/>
		<path class="st2" d="M384,31.4c0,0.3,0,0.5,0,0.8c-0.3,3-3.2,5.6-7.1,6.4c-0.1,0-0.3,0.1-0.4,0.1c0,0-0.1,0-0.1,0
			c-0.4,0.1-0.9,0.1-1.3,0.2c-0.4,0-0.9,0-1.3,0c-0.1,0-0.2,0-0.3,0c-0.1,0-0.2,0-0.2,0c-2.4-0.1-4.6-0.9-6.1-2.2
			c-1.2-1-2-2.3-2.1-3.8L384,31.4z"/>
		<path class="st1" d="M373.7,38.2l0.1,0.7c-0.1,0-0.2,0-0.3,0c-0.1,0-0.2,0-0.2,0c-0.2,0-0.4,0-0.6,0c-0.1,0-0.3,0-0.4-0.1
			c-0.2,0-0.4-0.1-0.6-0.1c-0.2,0-0.4-0.1-0.6-0.1c-0.4-0.1-0.9-0.2-1.3-0.4c-0.2,0-0.3-0.1-0.4-0.2c-0.7-0.3-1.3-0.6-1.8-1
			c-0.2-0.1-0.3-0.2-0.5-0.4c-0.2-0.2-0.4-0.3-0.5-0.5c0,0-0.1-0.1-0.1-0.1c0,0,0,0,0,0c-0.8-0.9-1.3-1.9-1.4-3.1
			c1.5,4.6,7.1,5.2,8.4,5.3l0,0L373.7,38.2C373.6,38.2,373.7,38.2,373.7,38.2z"/>
		<circle class="st2" cx="374.1" cy="27.6" r="0.3"/>
		<path class="st3" d="M384,31.4c0.3,3.3-2.8,6.3-7.1,7.2c-0.1,0-0.3,0.1-0.4,0.1c0,0-0.1,0-0.1,0c-0.4,0.1-0.9,0.1-1.3,0.2
			c-0.4,0-0.9,0.1-1.3,0l-0.1-0.7l0,0c1.2,0.1,2.9,0,4.7-0.8c0.8-0.4,4-1.7,4.7-4.7c0.1-0.5,0.1-1,0.1-1.3L384,31.4z"/>
	</g>
</g>
<g>
	<polygon class="st0" points="426.9,38.1 426.9,41.8 423.1,41.8 425.8,39.2 424.2,39.2 424.2,40.7 	"/>
	<polygon class="st1" points="426.9,38.1 426.3,38.7 425,40 423.7,41.2 423.1,41.8 423.1,38.1 	"/>
	<rect x="423.7" y="38.7" class="st2" width="2.6" height="2.6"/>
	<polygon class="st0" points="435.4,41.2 435.4,50 414.6,50 417.3,47.3 432.7,47.3 432.7,43.9 	"/>
	<polygon class="st1" points="435.4,41.2 432.7,43.9 417.3,43.9 417.3,47.3 414.6,50 414.6,41.2 	"/>
	<rect x="415.2" y="41.8" class="st2" width="19.6" height="7.6"/>
	<g>
		<rect x="424.8" y="27.4" class="st1" width="0.3" height="5"/>
		<path class="st2" d="M434.6,32c0,0.3,0,0.5-0.1,0.8c-0.5,3-3.6,5.4-7.7,5.9c-0.2,0-0.3,0-0.5,0.1c0,0-0.1,0-0.1,0
			c-0.4,0-0.9,0.1-1.3,0.1s-0.9,0-1.3-0.1c-0.1,0-0.2,0-0.3,0c-0.1,0-0.2,0-0.2,0c-2.4-0.3-4.5-1.3-6-2.7c-1.2-1.1-1.8-2.5-1.8-4
			H434.6z"/>
		<path class="st1" d="M423.7,38v0.8c-0.1,0-0.2,0-0.3,0c-0.1,0-0.2,0-0.2,0c-0.2,0-0.4-0.1-0.7-0.1c-0.1,0-0.3-0.1-0.4-0.1
			c-0.2,0-0.4-0.1-0.6-0.1c-0.2-0.1-0.4-0.1-0.6-0.2c-0.4-0.1-0.8-0.3-1.2-0.5c-0.1-0.1-0.3-0.1-0.4-0.2c-0.6-0.3-1.2-0.7-1.7-1.2
			c-0.2-0.1-0.3-0.3-0.4-0.4c-0.2-0.2-0.4-0.4-0.5-0.6c0,0-0.1-0.1-0.1-0.1c0,0,0,0,0,0c-0.7-1-1.1-2-1.1-3.2c1.2,4.7,6.7,5.8,8,6h0
			l0.2,0C423.6,38,423.7,38,423.7,38z"/>
		<circle class="st2" cx="425" cy="27.4" r="0.3"/>
		<path class="st3" d="M434.6,32c0,3.3-3.4,6.1-7.8,6.7c-0.1,0-0.3,0-0.5,0.1c0,0-0.1,0-0.1,0c-0.4,0-0.9,0.1-1.3,0.1
			s-0.9,0-1.3-0.1V38h0c1.2,0.2,2.9,0.2,4.8-0.5c0.8-0.3,4.1-1.4,5.1-4.3c0.2-0.5,0.2-1,0.2-1.3H434.6z"/>
	</g>
</g>
<g>
	<polygon class="st0" points="476.9,38.1 476.9,41.8 473.1,41.8 475.8,39.2 474.2,39.2 474.2,40.7 	"/>
	<polygon class="st1" points="476.9,38.1 476.3,38.7 475,40 473.7,41.2 473.1,41.8 473.1,38.1 	"/>
	<rect x="473.7" y="38.7" class="st2" width="2.6" height="2.6"/>
	<polygon class="st0" points="485.4,41.2 485.4,50 464.6,50 467.3,47.3 482.7,47.3 482.7,43.9 	"/>
	<polygon class="st1" points="485.4,41.2 482.7,43.9 467.3,43.9 467.3,47.3 464.6,50 464.6,41.2 	"/>
	<rect x="465.2" y="41.8" class="st2" width="19.6" height="7.6"/>
	<g>
		
			<rect x="473.3" y="30.1" transform="matrix(8.223179e-02 -0.9966 0.9966 8.223179e-02 406.5053 501.8409)" class="st1" width="4.9" height="0.3"/>
		<path class="st2" d="M485.1,33.1c0,0.3-0.1,0.5-0.1,0.8c-0.8,2.9-4,5-8.1,5.2c-0.2,0-0.3,0-0.5,0c0,0-0.1,0-0.1,0
			c-0.4,0-0.9,0-1.3,0c-0.4,0-0.9-0.1-1.3-0.2c-0.1,0-0.2,0-0.3-0.1c-0.1,0-0.2,0-0.2-0.1c-2.4-0.5-4.4-1.7-5.7-3.1
			c-1.1-1.2-1.6-2.6-1.5-4.1L485.1,33.1z"/>
		<path class="st1" d="M473.8,38.1l-0.1,0.7c-0.1,0-0.2,0-0.3-0.1c-0.1,0-0.2,0-0.2-0.1c-0.2,0-0.4-0.1-0.6-0.2
			c-0.1,0-0.3-0.1-0.4-0.1c-0.2-0.1-0.4-0.1-0.6-0.2c-0.2-0.1-0.4-0.1-0.6-0.2c-0.4-0.2-0.8-0.4-1.2-0.6c-0.1-0.1-0.3-0.2-0.4-0.2
			c-0.6-0.4-1.1-0.8-1.6-1.3c-0.1-0.1-0.3-0.3-0.4-0.4c-0.2-0.2-0.3-0.4-0.5-0.6c0,0-0.1-0.1-0.1-0.1c0,0,0,0,0,0
			c-0.6-1-0.9-2.1-0.9-3.3c0.8,4.7,6.1,6.3,7.4,6.6l0,0L473.8,38.1C473.7,38.1,473.8,38.1,473.8,38.1z"/>
		<circle class="st2" cx="475.9" cy="27.8" r="0.3"/>
		<path class="st3" d="M485.1,33.1c-0.3,3.3-3.8,5.8-8.2,6c-0.2,0-0.3,0-0.5,0c0,0-0.1,0-0.1,0c-0.4,0-0.9,0-1.3,0
			c-0.4,0-0.9-0.1-1.3-0.2l0.1-0.7l0,0c1.2,0.3,2.9,0.4,4.8-0.1c0.9-0.2,4.2-1.1,5.4-3.8c0.2-0.5,0.3-0.9,0.3-1.2L485.1,33.1z"/>
	</g>
</g>
<g>
	<polygon class="st0" points="526.8,38.1 526.8,41.8 523.1,41.8 525.7,39.2 524.1,39.2 524.1,40.7 	"/>
	<polygon class="st1" points="526.8,38.1 526.2,38.7 524.9,40 523.6,41.2 523.1,41.8 523.1,38.1 	"/>
	<rect x="523.6" y="38.7" class="st2" width="2.6" height="2.6"/>
	<polygon class="st0" points="535.3,41.2 535.3,50 514.6,50 517.2,47.3 532.6,47.3 532.6,43.9 	"/>
	<polygon class="st1" points="535.3,41.2 532.6,43.9 517.2,43.9 517.2,47.3 514.6,50 514.6,41.2 	"/>
	<rect x="515.1" y="41.8" class="st2" width="19.6" height="7.6"/>
	<g>
		
			<rect x="523.9" y="30.4" transform="matrix(0.165 -0.9863 0.9863 0.165 409.4207 544.6492)" class="st1" width="4.9" height="0.3"/>
		<path class="st2" d="M535.4,34.1c0,0.3-0.1,0.5-0.2,0.8c-1,2.8-4.4,4.6-8.5,4.5c-0.2,0-0.3,0-0.5,0c0,0-0.1,0-0.1,0
			c-0.4,0-0.9-0.1-1.3-0.1c-0.4-0.1-0.8-0.2-1.3-0.3c-0.1,0-0.2-0.1-0.3-0.1c-0.1,0-0.2,0-0.2-0.1c-2.3-0.7-4.2-2-5.4-3.6
			c-0.9-1.3-1.4-2.8-1.1-4.2L535.4,34.1z"/>
		<path class="st1" d="M523.8,38.2l-0.1,0.7c-0.1,0-0.2-0.1-0.3-0.1c-0.1,0-0.2,0-0.2-0.1c-0.2-0.1-0.4-0.1-0.6-0.2
			c-0.1-0.1-0.3-0.1-0.4-0.2c-0.2-0.1-0.4-0.2-0.6-0.2c-0.2-0.1-0.4-0.2-0.5-0.3c-0.4-0.2-0.8-0.4-1.1-0.7c-0.1-0.1-0.3-0.2-0.4-0.3
			c-0.6-0.4-1.1-0.9-1.5-1.4c-0.1-0.2-0.2-0.3-0.4-0.5c-0.2-0.2-0.3-0.4-0.4-0.6c0,0-0.1-0.1-0.1-0.1c0,0,0,0,0,0
			c-0.5-1-0.8-2.2-0.6-3.3c0.4,4.8,5.6,6.7,6.8,7.1l0,0L523.8,38.2C523.7,38.2,523.8,38.2,523.8,38.2z"/>
		<circle class="st2" cx="526.8" cy="28.1" r="0.3"/>
		<path class="st3" d="M535.4,34.1c-0.5,3.2-4.3,5.4-8.7,5.3c-0.2,0-0.3,0-0.5,0c0,0-0.1,0-0.1,0c-0.4,0-0.9-0.1-1.3-0.1
			s-0.8-0.2-1.3-0.3l0.1-0.7l0,0c1.2,0.4,2.8,0.7,4.7,0.3c0.9-0.1,4.3-0.7,5.7-3.4c0.3-0.5,0.4-0.9,0.4-1.2L535.4,34.1z"/>
	</g>
</g>
<g>
	<polygon class="st0" points="576.6,38.1 576.6,41.8 572.9,41.8 575.5,39.2 573.9,39.2 573.9,40.7 	"/>
	<polygon class="st1" points="576.6,38.1 576,38.7 574.7,40 573.4,41.2 572.9,41.8 572.9,38.1 	"/>
	<rect x="573.4" y="38.7" class="st2" width="2.6" height="2.6"/>
	<polygon class="st0" points="585.1,41.2 585.1,50 564.4,50 567,47.3 582.4,47.3 582.4,43.9 	"/>
	<polygon class="st1" points="585.1,41.2 582.4,43.9 567,43.9 567,47.3 564.4,50 564.4,41.2 	"/>
	<rect x="564.9" y="41.8" class="st2" width="19.6" height="7.6"/>
	<g>
		
			<rect x="574.5" y="30.7" transform="matrix(0.2467 -0.9691 0.9691 0.2467 404.7177 582.2939)" class="st1" width="4.9" height="0.3"/>
		<path class="st2" d="M585.6,35.2c-0.1,0.3-0.2,0.5-0.3,0.8c-1.2,2.7-4.8,4.2-8.8,3.8c-0.2,0-0.3,0-0.5-0.1c0,0-0.1,0-0.1,0
			c-0.4-0.1-0.9-0.1-1.3-0.3c-0.4-0.1-0.8-0.2-1.2-0.4c-0.1,0-0.2-0.1-0.3-0.1c-0.1,0-0.1-0.1-0.2-0.1c-2.3-0.9-4-2.4-5.1-4
			c-0.8-1.4-1.1-2.9-0.8-4.3L585.6,35.2z"/>
		<path class="st1" d="M573.7,38.3l-0.2,0.7c-0.1,0-0.2-0.1-0.3-0.1c-0.1,0-0.1-0.1-0.2-0.1c-0.2-0.1-0.4-0.2-0.6-0.3
			c-0.1-0.1-0.3-0.1-0.4-0.2c-0.2-0.1-0.4-0.2-0.5-0.3c-0.2-0.1-0.4-0.2-0.5-0.3c-0.4-0.2-0.7-0.5-1.1-0.8c-0.1-0.1-0.2-0.2-0.4-0.3
			c-0.5-0.5-1-1-1.4-1.5c-0.1-0.2-0.2-0.3-0.3-0.5c-0.1-0.2-0.3-0.5-0.3-0.7c0,0,0-0.1,0-0.1c0,0,0,0,0,0c-0.5-1.1-0.6-2.2-0.3-3.4
			c0,4.8,5,7.2,6.2,7.7l0,0L573.7,38.3C573.6,38.3,573.6,38.3,573.7,38.3z"/>
		<circle class="st2" cx="577.5" cy="28.4" r="0.3"/>
		<path class="st3" d="M585.6,35.2c-0.8,3.2-4.7,5-9.1,4.5c-0.2,0-0.3,0-0.5-0.1c0,0-0.1,0-0.1,0c-0.4-0.1-0.9-0.1-1.3-0.3
			c-0.4-0.1-0.8-0.2-1.2-0.4l0.2-0.7l0,0c1.1,0.4,2.8,0.9,4.7,0.7c0.9-0.1,4.3-0.3,5.9-2.9c0.3-0.5,0.5-0.9,0.5-1.2L585.6,35.2z"/>
	</g>
</g>
<g>
	<polygon class="st0" points="626.4,38.1 626.4,41.8 622.6,41.8 625.3,39.2 623.7,39.2 623.7,40.7 	"/>
	<polygon class="st1" points="626.4,38.1 625.8,38.7 624.5,40 623.2,41.2 622.6,41.8 622.6,38.1 	"/>
	<rect x="623.2" y="38.7" class="st2" width="2.6" height="2.6"/>
	<polygon class="st0" points="634.9,41.2 634.9,50 614.1,50 616.8,47.3 632.2,47.3 632.2,43.9 	"/>
	<polygon class="st1" points="634.9,41.2 632.2,43.9 616.8,43.9 616.8,47.3 614.1,50 614.1,41.2 	"/>
	<rect x="614.7" y="41.8" class="st2" width="19.6" height="7.6"/>
	<g>
		
			<rect x="627.3" y="28.7" transform="matrix(0.9455 0.3256 -0.3256 0.9455 44.3134 -202.5618)" class="st1" width="0.3" height="5"/>
		<path class="st2" d="M635.9,36.3c-0.1,0.3-0.2,0.5-0.3,0.7c-1.4,2.6-5.2,3.9-9.2,3.1c-0.2,0-0.3-0.1-0.5-0.1c0,0-0.1,0-0.1,0
			c-0.4-0.1-0.8-0.2-1.3-0.4c-0.4-0.1-0.8-0.3-1.2-0.5c-0.1,0-0.2-0.1-0.3-0.1c-0.1,0-0.1-0.1-0.2-0.1c-2.2-1.1-3.9-2.7-4.8-4.5
			c-0.7-1.4-0.9-3-0.4-4.4L635.9,36.3z"/>
		<path class="st1" d="M623.6,38.4l-0.2,0.7c-0.1,0-0.2-0.1-0.3-0.1c-0.1,0-0.1-0.1-0.2-0.1c-0.2-0.1-0.4-0.2-0.6-0.3
			c-0.1-0.1-0.2-0.1-0.4-0.2c-0.2-0.1-0.3-0.2-0.5-0.3c-0.2-0.1-0.3-0.2-0.5-0.4c-0.4-0.3-0.7-0.6-1-0.9c-0.1-0.1-0.2-0.2-0.3-0.3
			c-0.5-0.5-0.9-1.1-1.2-1.7c-0.1-0.2-0.2-0.3-0.3-0.5c-0.1-0.2-0.2-0.5-0.3-0.7c0-0.1,0-0.1,0-0.1c0,0,0,0,0,0
			c-0.4-1.1-0.4-2.3,0-3.4c-0.4,4.8,4.4,7.7,5.6,8.3l0,0L623.6,38.4C623.5,38.4,623.5,38.4,623.6,38.4z"/>
		<circle class="st2" cx="628.2" cy="28.8" r="0.3"/>
		<path class="st3" d="M635.9,36.3c-1.1,3.1-5.2,4.7-9.6,3.8c-0.2,0-0.3-0.1-0.5-0.1c0,0-0.1,0-0.1,0c-0.4-0.1-0.8-0.2-1.3-0.4
			c-0.4-0.1-0.8-0.3-1.2-0.5l0.2-0.7l0,0c1.1,0.5,2.7,1.1,4.7,1.1c0.9,0,4.4,0,6.2-2.4c0.3-0.4,0.5-0.8,0.6-1.1L635.9,36.3z"/>
	</g>
</g>
<g>
	<polygon class="st0" points="676.6,38.1 676.6,41.8 672.9,41.8 675.5,39.2 673.9,39.2 673.9,40.7 	"/>
	<polygon class="st1" points="676.6,38.1 676,38.7 674.7,40 673.4,41.2 672.9,41.8 672.9,38.1 	"/>
	<rect x="673.4" y="38.7" class="st2" width="2.6" height="2.6"/>
	<polygon class="st0" points="685.1,41.2 685.1,50 664.4,50 667,47.3 682.4,47.3 682.4,43.9 	"/>
	<polygon class="st1" points="685.1,41.2 682.4,43.9 667,43.9 667,47.3 664.4,50 664.4,41.2 	"/>
	<rect x="664.9" y="41.8" class="st2" width="19.6" height="7.6"/>
	<g>
		
			<rect x="674.5" y="30.7" transform="matrix(0.2467 -0.9691 0.9691 0.2467 480.0575 679.2153)" class="st1" width="4.9" height="0.3"/>
		<path class="st2" d="M685.7,35.2c-0.1,0.3-0.2,0.5-0.3,0.8c-1.2,2.7-4.8,4.2-8.8,3.8c-0.2,0-0.3,0-0.5-0.1c0,0-0.1,0-0.1,0
			c-0.4-0.1-0.9-0.1-1.3-0.3c-0.4-0.1-0.8-0.2-1.2-0.4c-0.1,0-0.2-0.1-0.3-0.1c-0.1,0-0.1-0.1-0.2-0.1c-2.3-0.9-4-2.4-5.1-4
			c-0.8-1.4-1.1-2.9-0.8-4.3L685.7,35.2z"/>
		<path class="st1" d="M673.7,38.3l-0.2,0.7c-0.1,0-0.2-0.1-0.3-0.1c-0.1,0-0.1-0.1-0.2-0.1c-0.2-0.1-0.4-0.2-0.6-0.3
			c-0.1-0.1-0.3-0.1-0.4-0.2c-0.2-0.1-0.4-0.2-0.5-0.3c-0.2-0.1-0.4-0.2-0.5-0.3c-0.4-0.2-0.7-0.5-1.1-0.8c-0.1-0.1-0.2-0.2-0.4-0.3
			c-0.5-0.5-1-1-1.4-1.5c-0.1-0.2-0.2-0.3-0.3-0.5c-0.1-0.2-0.3-0.5-0.3-0.7c0,0,0-0.1,0-0.1c0,0,0,0,0,0c-0.5-1.1-0.6-2.2-0.3-3.4
			c0,4.8,5,7.2,6.2,7.7l0,0L673.7,38.3C673.6,38.3,673.7,38.3,673.7,38.3z"/>
		<circle class="st2" cx="677.5" cy="28.4" r="0.3"/>
		<path class="st3" d="M685.7,35.2c-0.8,3.2-4.7,5-9.1,4.5c-0.2,0-0.3,0-0.5-0.1c0,0-0.1,0-0.1,0c-0.4-0.1-0.9-0.1-1.3-0.3
			c-0.4-0.1-0.8-0.2-1.2-0.4l0.2-0.7l0,0c1.1,0.4,2.8,0.9,4.7,0.7c0.9-0.1,4.3-0.3,5.9-2.9c0.3-0.5,0.5-0.9,0.5-1.2L685.7,35.2z"/>
	</g>
</g>
<g>
	<polygon class="st0" points="726.8,38.1 726.8,41.8 723.1,41.8 725.8,39.2 724.1,39.2 724.1,40.7 	"/>
	<polygon class="st1" points="726.8,38.1 726.3,38.7 725,40 723.7,41.2 723.1,41.8 723.1,38.1 	"/>
	<rect x="723.7" y="38.7" class="st2" width="2.6" height="2.6"/>
	<polygon class="st0" points="735.3,41.2 735.3,50 714.6,50 717.3,47.3 732.6,47.3 732.6,43.9 	"/>
	<polygon class="st1" points="735.3,41.2 732.6,43.9 717.3,43.9 717.3,47.3 714.6,50 714.6,41.2 	"/>
	<rect x="715.2" y="41.8" class="st2" width="19.6" height="7.6"/>
	<g>
		<rect x="724" y="30.4" transform="matrix(0.165 -0.9863 0.9863 0.165 576.4338 741.9312)" class="st1" width="4.9" height="0.3"/>
		<path class="st2" d="M735.5,34.1c0,0.3-0.1,0.5-0.2,0.8c-1,2.8-4.4,4.6-8.5,4.5c-0.2,0-0.3,0-0.5,0c0,0-0.1,0-0.1,0
			c-0.4,0-0.9-0.1-1.3-0.1c-0.4-0.1-0.8-0.2-1.3-0.3c-0.1,0-0.2-0.1-0.3-0.1c-0.1,0-0.2,0-0.2-0.1c-2.3-0.7-4.2-2-5.4-3.6
			c-0.9-1.3-1.4-2.8-1.1-4.2L735.5,34.1z"/>
		<path class="st1" d="M723.8,38.2l-0.1,0.7c-0.1,0-0.2-0.1-0.3-0.1c-0.1,0-0.2,0-0.2-0.1c-0.2-0.1-0.4-0.1-0.6-0.2
			c-0.1-0.1-0.3-0.1-0.4-0.2c-0.2-0.1-0.4-0.2-0.6-0.2c-0.2-0.1-0.4-0.2-0.5-0.3c-0.4-0.2-0.8-0.4-1.1-0.7c-0.1-0.1-0.3-0.2-0.4-0.3
			c-0.6-0.4-1.1-0.9-1.5-1.4c-0.1-0.2-0.2-0.3-0.4-0.5c-0.2-0.2-0.3-0.4-0.4-0.6c0,0-0.1-0.1-0.1-0.1c0,0,0,0,0,0
			c-0.5-1-0.8-2.2-0.6-3.3c0.4,4.8,5.6,6.7,6.8,7.1l0,0L723.8,38.2C723.8,38.2,723.8,38.2,723.8,38.2z"/>
		<circle class="st2" cx="726.8" cy="28.1" r="0.3"/>
		<path class="st3" d="M735.5,34.1c-0.5,3.2-4.3,5.4-8.7,5.3c-0.2,0-0.3,0-0.5,0c0,0-0.1,0-0.1,0c-0.4,0-0.9-0.1-1.3-0.1
			c-0.4-0.1-0.8-0.2-1.3-0.3l0.1-0.7l0,0c1.2,0.4,2.8,0.7,4.7,0.3c0.9-0.1,4.3-0.7,5.7-3.4c0.3-0.5,0.4-0.9,0.4-1.2L735.5,34.1z"/>
	</g>
</g>
<g>
	<polygon class="st0" points="776.9,38.1 776.9,41.8 773.2,41.8 775.9,39.2 774.2,39.2 774.2,40.7 	"/>
	<polygon class="st1" points="776.9,38.1 776.3,38.7 775,40 773.7,41.2 773.2,41.8 773.2,38.1 	"/>
	<rect x="773.7" y="38.7" class="st2" width="2.6" height="2.6"/>
	<polygon class="st0" points="785.4,41.2 785.4,50 764.7,50 767.4,47.3 782.7,47.3 782.7,43.9 	"/>
	<polygon class="st1" points="785.4,41.2 782.7,43.9 767.4,43.9 767.4,47.3 764.7,50 764.7,41.2 	"/>
	<rect x="765.2" y="41.8" class="st2" width="19.6" height="7.6"/>
	<g>
		
			<rect x="773.3" y="30.1" transform="matrix(8.223179e-02 -0.9966 0.9966 8.223179e-02 681.87 800.862)" class="st1" width="4.9" height="0.3"/>
		<path class="st2" d="M785.1,33.1c0,0.3-0.1,0.5-0.1,0.8c-0.8,2.9-4,5-8.1,5.2c-0.2,0-0.3,0-0.5,0c0,0-0.1,0-0.1,0
			c-0.4,0-0.9,0-1.3,0c-0.4,0-0.9-0.1-1.3-0.2c-0.1,0-0.2,0-0.3-0.1c-0.1,0-0.2,0-0.2-0.1c-2.4-0.5-4.4-1.7-5.7-3.1
			c-1.1-1.2-1.6-2.6-1.5-4.1L785.1,33.1z"/>
		<path class="st1" d="M773.8,38.1l-0.1,0.7c-0.1,0-0.2,0-0.3-0.1c-0.1,0-0.2,0-0.2-0.1c-0.2,0-0.4-0.1-0.6-0.2
			c-0.1,0-0.3-0.1-0.4-0.1c-0.2-0.1-0.4-0.1-0.6-0.2c-0.2-0.1-0.4-0.1-0.6-0.2c-0.4-0.2-0.8-0.4-1.2-0.6c-0.1-0.1-0.3-0.2-0.4-0.2
			c-0.6-0.4-1.1-0.8-1.6-1.3c-0.1-0.1-0.3-0.3-0.4-0.4c-0.2-0.2-0.3-0.4-0.5-0.6c0,0-0.1-0.1-0.1-0.1c0,0,0,0,0,0
			c-0.6-1-0.9-2.1-0.9-3.3c0.8,4.7,6.1,6.3,7.4,6.6l0,0L773.8,38.1C773.8,38.1,773.8,38.1,773.8,38.1z"/>
		<circle class="st2" cx="776" cy="27.8" r="0.3"/>
		<path class="st3" d="M785.1,33.1c-0.3,3.3-3.8,5.8-8.2,6c-0.2,0-0.3,0-0.5,0c0,0-0.1,0-0.1,0c-0.4,0-0.9,0-1.3,0
			c-0.4,0-0.9-0.1-1.3-0.2l0.1-0.7l0,0c1.2,0.3,2.9,0.4,4.8-0.1c0.9-0.2,4.2-1.1,5.4-3.8c0.2-0.5,0.3-0.9,0.3-1.2L785.1,33.1z"/>
	</g>
</g>
</svg>
