<svg xmlns="http://www.w3.org/2000/svg" xmlns:xlink="http://www.w3.org/1999/xlink" version="1.1" id="Layer_1" x="0px" y="0px" viewBox="0 0 100 50" style="enable-background:new 0 0 100 50;" xml:space="preserve" width="100px" height="50px">
<style xmlns="http://www.w3.org/2000/svg" type="text/css">
	.st0{fill:#FAAF40;}
	.st1{fill:#DD9C38;}
</style>
<filter id="glow">
            <feColorMatrix xmlns="http://www.w3.org/2000/svg" type="matrix" values="0 0 0 0   1                          0 0 0 0   .5                          0 0 0 0   0                          0 0 0 1  0"/>
            <feGaussianBlur stdDeviation="2.5" result="coloredBlur"/>
            <feMerge>
                <feMergeNode in="coloredBlur"/>
                <feMergeNode in="SourceGraphic"/>
            </feMerge>
        </filter>
<circle class="st0" cx="25" cy="25" r="18.2"/><path xmlns="http://www.w3.org/2000/svg" filter="url(#glow)" class="st1" d="M23.9,28.8C23,28,19,26.1,19,19.9h1.3c0.5,0,0.7-0.5,0.4-0.9l-3.2-4.2c-0.2-0.3-0.7-0.3-0.9,0L13.4,19     c-0.3,0.4,0,0.9,0.4,0.9H15c0,7.3,6.7,8.8,8.9,9.2C24,29.1,24.1,28.9,23.9,28.8z"/>

<path xmlns="http://www.w3.org/2000/svg" filter="url(#glow)" class="st1" d="M21.3,23.7c0.8-0.9,2.7-4.9,8.9-4.9V20c0,0.5,0.5,0.7,0.9,0.4l4.2-3.2c0.3-0.2,0.3-0.7,0-0.9l-4.2-3.2     c-0.4-0.3-0.9,0-0.9,0.4v1.1c-7.3,0-8.8,6.7-9.2,8.9C21,23.7,21.2,23.8,21.3,23.7z"/><path xmlns="http://www.w3.org/2000/svg" filter="url(#glow)" class="st1" d="M26.1,21.2C27,22,31,23.9,31,30.1h-1.3c-0.5,0-0.7,0.5-0.4,0.9l3.2,4.2c0.2,0.3,0.7,0.3,0.9,0l3.2-4.2     c0.3-0.4,0-0.9-0.4-0.9H35c0-7.3-6.7-8.8-8.9-9.2C26,20.9,25.9,21.1,26.1,21.2z"/><path xmlns="http://www.w3.org/2000/svg" filter="url(#glow)" class="st1" d="M28.7,26.3c-0.8,0.9-2.7,4.9-8.9,4.9V30c0-0.5-0.5-0.7-0.9-0.4l-4.2,3.2c-0.3,0.2-0.3,0.7,0,0.9l4.2,3.2     c0.4,0.3,0.9,0,0.9-0.4v-1.1c7.3,0,8.8-6.7,9.2-8.9C29,26.3,28.8,26.2,28.7,26.3z"/>
<circle xmlns="http://www.w3.org/2000/svg" filter="url(#glow)" class="st0" cx="75" cy="25" r="18.2"/>

<path xmlns="http://www.w3.org/2000/svg" filter="url(#glow)" class="st1" d="M73.9,28.8C73,28,69,26.1,69,19.9h1.3c0.5,0,0.7-0.5,0.4-0.9l-3.2-4.2c-0.2-0.3-0.7-0.3-0.9,0L63.4,19     c-0.3,0.4,0,0.9,0.4,0.9H65c0,7.3,6.7,8.8,8.9,9.2C74,29.1,74.1,28.9,73.9,28.8z"/><path xmlns="http://www.w3.org/2000/svg" filter="url(#glow)" class="st1" d="M71.3,23.7c0.8-0.9,2.7-4.9,8.9-4.9V20c0,0.5,0.5,0.7,0.9,0.4l4.2-3.2c0.3-0.2,0.3-0.7,0-0.9l-4.2-3.2     c-0.4-0.3-0.9,0-0.9,0.4v1.1c-7.3,0-8.8,6.7-9.2,8.9C71,23.7,71.2,23.8,71.3,23.7z"/><path xmlns="http://www.w3.org/2000/svg" filter="url(#glow)" class="st1" d="M76.1,21.2C77,22,81,23.9,81,30.1h-1.3c-0.5,0-0.7,0.5-0.4,0.9l3.2,4.2c0.2,0.3,0.7,0.3,0.9,0l3.2-4.2     c0.3-0.4,0-0.9-0.4-0.9H85c0-7.3-6.7-8.8-8.9-9.2C76,20.9,75.9,21.1,76.1,21.2z"/><path xmlns="http://www.w3.org/2000/svg" filter="url(#glow)" class="st1" d="M78.7,26.3c-0.8,0.9-2.7,4.9-8.9,4.9V30c0-0.5-0.5-0.7-0.9-0.4l-4.2,3.2c-0.3,0.2-0.3,0.7,0,0.9l4.2,3.2     c0.4,0.3,0.9,0,0.9-0.4v-1.1c7.3,0,8.8-6.7,9.2-8.9C79,26.3,78.8,26.2,78.7,26.3z"/>
</svg>