<?xml version="1.0" encoding="utf-8"?>
<!-- Generator: Adobe Illustrator 22.0.0, SVG Export Plug-In . SVG Version: 6.00 Build 0)  -->
<svg version="1.1" id="Layer_1" xmlns="http://www.w3.org/2000/svg" xmlns:xlink="http://www.w3.org/1999/xlink" x="0px" y="0px"
	 viewBox="0 0 394.3 281.8" style="enable-background:new 0 0 394.3 281.8;" xml:space="preserve">
<style type="text/css">
	.st0{clip-path:url(#SVGID_2_);}
	.st1{fill:#F9AE42;}
	.st2{fill:#DE9C37;}
	.st3{opacity:0.7;}
	.st4{opacity:0.75;}
	.st5{fill:#BCBDBF;}
	.st6{fill:#F79420;}
	.st7{fill:#929497;}
	.st8{fill:#D0D2D3;}
	.st9{fill:#A6A8AB;}
	.st10{fill:#00ADEE;}
	.st11{fill:#006A93;}
	.st12{fill:#0080B0;}
	.st13{fill:#B51218;}
	.st14{fill:#EC1C24;}
	.st15{fill:#CE181E;}
</style>
<g>
	<defs>
		<rect id="SVGID_1_" x="-0.3" y="-0.2" width="396.3" height="283"/>
	</defs>
	<clipPath id="SVGID_2_">
		<use xlink:href="#SVGID_1_"  style="overflow:visible;"/>
	</clipPath>
	<rect x="-352.1" y="339.9" class="st0" width="88" height="88"/>
	<rect x="-352.1" y="-285.2" class="st0" width="792" height="612"/>
	<g class="st0">
		<circle class="st1" cx="133.7" cy="108.4" r="32"/>
		<g>
			
				
			<g>
				<g>
					<path class="st2" d="M131.9,115.1c-1.6-1.3-8.7-4.7-8.7-15.7h2.2c0.8,0,1.3-0.9,0.8-1.6l-5.6-7.3c-0.4-0.5-1.2-0.5-1.6,0
						l-5.6,7.3c-0.5,0.7,0,1.6,0.8,1.6h2c0,12.8,11.7,15.4,15.6,16.2C131.9,115.6,132.1,115.3,131.9,115.1z"/>
					<path class="st2" d="M127.2,106.1c1.3-1.6,4.7-8.7,15.7-8.7v2.2c0,0.8,0.9,1.3,1.6,0.8l7.3-5.6c0.5-0.4,0.5-1.2,0-1.6l-7.3-5.6
						c-0.7-0.5-1.6,0-1.6,0.8v2c-12.8,0-15.4,11.7-16.2,15.6C126.7,106.2,127,106.4,127.2,106.1z"/>
					<path class="st2" d="M135.6,101.7c1.6,1.3,8.7,4.7,8.7,15.7h-2.2c-0.8,0-1.3,0.9-0.8,1.6l5.6,7.3c0.4,0.5,1.2,0.5,1.6,0
						l5.6-7.3c0.5-0.7,0-1.6-0.8-1.6h-2c0-12.8-11.7-15.4-15.6-16.2C135.5,101.2,135.4,101.6,135.6,101.7z"/>
					<path class="st2" d="M140.3,110.7c-1.3,1.6-4.7,8.7-15.7,8.7v-2.2c0-0.8-0.9-1.3-1.6-0.8l-7.3,5.6c-0.5,0.4-0.5,1.2,0,1.6
						l7.3,5.6c0.7,0.5,1.6,0,1.6-0.8v-2c12.8,0,15.4-11.7,16.2-15.6C140.8,110.6,140.4,110.5,140.3,110.7z"/>
				</g>
			</g>
		</g>
	</g>
	<g class="st0">
		<g class="st3">
			<g class="st4">
				<path class="st5" d="M131.2,75.2c8.6-8.7,22.8-8.5,31.2,0.7c7.4,8.2,7.3,20.9-0.2,29c-2.2,2.4-4.8,4.1-7.6,5.3
					c-2.6,1.1-5.3,1.6-8.1,1.6c-34.5,18.4-55.7,46.5-75.1,96.7c-0.8,2.1-4.2,0.6-3.5-1.6c11.8-41.3,34-71.3,55-106.1
					c1-3,2-7,2.1-10.4c0-2.7,0.5-5.5,1.5-8.1C127.6,79.7,129.1,77.3,131.2,75.2z"/>
			</g>
		</g>
		<g>
			<g>
				<circle class="st5" cx="146.5" cy="90.3" r="21.5"/>
			</g>
			<g class="st4">
				<circle class="st5" cx="146.5" cy="90.3" r="21.5"/>
			</g>
		</g>
		<g>
			<g>
				<path class="st6" d="M164.9,78.6l-15.6,15.7c-0.9,0.9-2.3,1-3.3,0l-3.4-3.4c-0.9-0.9-1-2.3,0-3.3l15.7-15.9
					c1.3-1.3,3.4-1.3,4.7,0l2.1,2.1C166.2,75.1,166.2,77.3,164.9,78.6z"/>
			</g>
			<g class="st4">
				<path class="st6" d="M164.9,78.6l-15.6,15.7c-0.9,0.9-2.3,1-3.3,0l-3.4-3.4c-0.9-0.9-1-2.3,0-3.3l15.7-15.9
					c1.3-1.3,3.4-1.3,4.7,0l2.1,2.1C166.2,75.1,166.2,77.3,164.9,78.6z"/>
			</g>
		</g>
		<g>
			<g>
				<path class="st5" d="M176.5,105c4.1,4.1,4.2,10.9,0.1,15.1c-4.1,4.1-10.9,4.2-15.1,0.1L176.5,105z"/>
			</g>
			<g class="st4">
				<path class="st5" d="M176.5,105c4.1,4.1,4.2,10.9,0.1,15.1c-4.1,4.1-10.9,4.2-15.1,0.1L176.5,105z"/>
			</g>
		</g>
		<g>
			<g>
				<path class="st5" d="M170.8,142.2l-2.3,2.4c-1.4,1.4-3.8,1.4-5.2,0l-18-17.8c-1.4-1.4-1.4-3.8,0-5.2l2.3-2.4
					c1.4-1.4,3.8-1.4,5.2,0l18,17.8C172.2,138.5,172.2,140.8,170.8,142.2z"/>
			</g>
			<g class="st4">
				<path class="st5" d="M170.8,142.2l-2.3,2.4c-1.4,1.4-3.8,1.4-5.2,0l-18-17.8c-1.4-1.4-1.4-3.8,0-5.2l2.3-2.4
					c1.4-1.4,3.8-1.4,5.2,0l18,17.8C172.2,138.5,172.2,140.8,170.8,142.2z"/>
			</g>
		</g>
		<g>
			<g>
				<path class="st5" d="M200.6,111.4l-2.3,2.4c-1.4,1.4-3.8,1.4-5.2,0l-17.9-17.7c-1.4-1.4-1.4-3.8,0-5.2l2.3-2.4
					c1.4-1.4,3.8-1.4,5.2,0l18,17.8C202,107.6,202,109.9,200.6,111.4z"/>
			</g>
			<g class="st4">
				<path class="st5" d="M200.6,111.4l-2.3,2.4c-1.4,1.4-3.8,1.4-5.2,0l-17.9-17.7c-1.4-1.4-1.4-3.8,0-5.2l2.3-2.4
					c1.4-1.4,3.8-1.4,5.2,0l18,17.8C202,107.6,202,109.9,200.6,111.4z"/>
			</g>
		</g>
	</g>
	<rect x="87.9" y="339.9" class="st0" width="88" height="88"/>
	<g class="st0">
		<polygon class="st7" points="-176.1,339.9 -176.1,427.9 -264.1,427.9 		"/>
		<polygon class="st8" points="-176.1,339.9 -264.1,427.9 -264.1,339.9 		"/>
		<rect x="-256.6" y="347.4" class="st9" width="73" height="73"/>
	</g>
	<g class="st0">
		<polygon class="st7" points="-264.1,238.8 -264.1,326.8 -352.1,326.8 		"/>
		<polygon class="st8" points="-264.1,238.8 -352.1,326.8 -352.1,238.8 		"/>
		<rect x="-344.6" y="246.3" class="st9" width="73" height="73"/>
	</g>
	<g class="st0">
		<polygon class="st7" points="-176.1,238.8 -176.1,326.8 -264.1,326.8 		"/>
		<polygon class="st8" points="-176.1,238.8 -264.1,326.8 -264.1,238.8 		"/>
		<rect x="-256.6" y="246.3" class="st9" width="73" height="73"/>
	</g>
	<g class="st0">
		<polygon class="st7" points="-88.1,238.8 -88.1,326.8 -176.1,326.8 		"/>
		<polygon class="st8" points="-88.1,238.8 -176.1,326.8 -176.1,238.8 		"/>
		<rect x="-168.6" y="246.3" class="st9" width="73" height="73"/>
	</g>
	<g class="st0">
		<polygon class="st7" points="-0.3,238.8 -0.3,326.8 -88.3,326.8 		"/>
		<polygon class="st8" points="-0.3,238.8 -88.3,326.8 -88.3,238.8 		"/>
		<rect x="-80.8" y="246.3" class="st9" width="73" height="73"/>
	</g>
	<g class="st0">
		<polygon class="st7" points="87.9,238.8 87.9,326.8 -0.1,326.8 		"/>
		<polygon class="st8" points="87.9,238.8 -0.1,326.8 -0.1,238.8 		"/>
		<rect x="7.4" y="246.3" class="st9" width="73" height="73"/>
	</g>
	<g class="st0">
		<polygon class="st7" points="439.9,238.8 439.9,326.8 351.9,326.8 		"/>
		<polygon class="st8" points="439.9,238.8 351.9,326.8 351.9,238.8 		"/>
		<rect x="359.4" y="246.3" class="st9" width="73" height="73"/>
	</g>
	<g class="st0">
		<polygon class="st7" points="439.9,150.8 439.9,238.8 351.9,238.8 		"/>
		<polygon class="st8" points="439.9,150.8 351.9,238.8 351.9,150.8 		"/>
		<rect x="359.4" y="158.3" class="st9" width="73" height="73"/>
	</g>
	<g class="st0">
		<polygon class="st7" points="439.9,63.3 439.9,151.3 351.9,151.3 		"/>
		<polygon class="st8" points="439.9,63.3 351.9,151.3 351.9,63.3 		"/>
		<rect x="359.4" y="70.8" class="st9" width="73" height="73"/>
	</g>
	<g class="st0">
		<polygon class="st7" points="439.9,-24.3 439.9,63.7 351.9,63.7 		"/>
		<polygon class="st8" points="439.9,-24.3 351.9,63.7 351.9,-24.3 		"/>
		<rect x="359.4" y="-16.8" class="st9" width="73" height="73"/>
	</g>
	<g class="st0">
		<polygon class="st7" points="439.9,-112.3 439.9,-24.3 351.9,-24.3 		"/>
		<polygon class="st8" points="439.9,-112.3 351.9,-24.3 351.9,-112.3 		"/>
		<rect x="359.4" y="-104.8" class="st9" width="73" height="73"/>
	</g>
	<g class="st0">
		<polygon class="st7" points="439.9,-200.3 439.9,-112.3 351.9,-112.3 		"/>
		<polygon class="st8" points="439.9,-200.3 351.9,-112.3 351.9,-200.3 		"/>
		<rect x="359.4" y="-192.8" class="st9" width="73" height="73"/>
	</g>
	<g class="st0">
		<polygon class="st7" points="439.9,-287.9 439.9,-199.9 351.9,-199.9 		"/>
		<polygon class="st8" points="439.9,-287.9 351.9,-199.9 351.9,-287.9 		"/>
		<rect x="359.4" y="-280.4" class="st9" width="73" height="73"/>
	</g>
	<g class="st0">
		<circle class="st1" cx="-132.1" cy="383.9" r="32"/>
		<circle class="st1" cx="-132.1" cy="383.9" r="32"/>
		<g>
			
				
			<g>
				<g>
					<path class="st2" d="M-133.9,390.5c-1.6-1.3-8.7-4.7-8.7-15.7h2.2c0.8,0,1.3-0.9,0.8-1.6l-5.6-7.3c-0.4-0.5-1.2-0.5-1.6,0
						l-5.6,7.3c-0.5,0.7,0,1.6,0.8,1.6h2c0,12.8,11.7,15.4,15.6,16.2C-133.9,391.1-133.7,390.7-133.9,390.5z"/>
					<path class="st2" d="M-138.6,381.6c1.3-1.6,4.7-8.7,15.7-8.7v2.2c0,0.8,0.9,1.3,1.6,0.8l7.3-5.6c0.5-0.4,0.5-1.2,0-1.6
						l-7.3-5.6c-0.7-0.5-1.6,0-1.6,0.8v2c-12.8,0-15.4,11.7-16.2,15.6C-139.1,381.7-138.8,381.8-138.6,381.6z"/>
					<path class="st2" d="M-130.2,377.2c1.6,1.3,8.7,4.7,8.7,15.7h-2.2c-0.8,0-1.3,0.9-0.8,1.6l5.6,7.3c0.4,0.5,1.2,0.5,1.6,0
						l5.6-7.3c0.5-0.7,0-1.6-0.8-1.6h-2c0-12.8-11.7-15.4-15.6-16.2C-130.3,376.7-130.4,377-130.2,377.2z"/>
					<path class="st2" d="M-125.5,386.2c-1.3,1.6-4.7,8.7-15.7,8.7v-2.2c0-0.8-0.9-1.3-1.6-0.8l-7.3,5.6c-0.5,0.4-0.5,1.2,0,1.6
						l7.3,5.6c0.7,0.5,1.6,0,1.6-0.8v-2c12.8,0,15.4-11.7,16.2-15.6C-125,386.1-125.4,385.9-125.5,386.2z"/>
				</g>
			</g>
		</g>
	</g>
	<g class="st0">
		<polygon class="st10" points="-52.9,339.9 -88.1,339.9 -88.1,420.4 -80.6,420.4 -80.6,347.4 -60.4,347.4 		"/>
		<polygon class="st11" points="-52.9,339.9 -60.4,347.4 -60.4,420.4 -88.1,420.4 -88.1,427.9 -52.9,427.9 		"/>
		<rect x="-88.1" y="347.4" class="st12" width="27.7" height="73"/>
	</g>
	<g class="st0">
		<polygon class="st13" points="87.9,339.9 87.9,427.9 -0.1,427.9 		"/>
		<polygon class="st14" points="87.9,339.9 -0.1,427.9 -0.1,339.9 		"/>
		<rect x="7.4" y="347.4" class="st15" width="73" height="73"/>
	</g>
	<g class="st0">
		<polygon class="st13" points="175.9,238.8 175.9,326.8 87.9,326.8 		"/>
		<polygon class="st14" points="175.9,238.8 87.9,326.8 87.9,238.8 		"/>
		<rect x="95.4" y="246.3" class="st15" width="73" height="73"/>
	</g>
	<g class="st0">
		<polygon class="st13" points="263.9,238.8 263.9,326.8 175.9,326.8 		"/>
		<polygon class="st14" points="263.9,238.8 175.9,326.8 175.9,238.8 		"/>
		<rect x="183.4" y="246.3" class="st15" width="73" height="73"/>
	</g>
	<g class="st0">
		<polygon class="st13" points="351.9,238.8 351.9,326.8 263.9,326.8 		"/>
		<polygon class="st14" points="351.9,238.8 263.9,326.8 263.9,238.8 		"/>
		<rect x="271.4" y="246.3" class="st15" width="73" height="73"/>
	</g>
	<g class="st0">
		<polygon class="st11" points="228.7,427.9 263.9,427.9 263.9,347.4 256.4,347.4 256.4,420.4 236.2,420.4 		"/>
		<polygon class="st10" points="228.7,427.9 236.2,420.4 236.2,347.4 263.9,347.4 263.9,339.9 228.7,339.9 		"/>
		<rect x="236.2" y="347.4" class="st12" width="27.7" height="73"/>
	</g>
	<g class="st0">
		<polygon class="st11" points="351.9,392.7 351.9,427.9 263.9,427.9 271.4,420.4 344.4,420.4 344.4,400.2 		"/>
		<polygon class="st10" points="351.9,392.7 344.4,400.2 271.4,400.2 271.4,427.9 263.9,427.9 263.9,392.7 		"/>
		<rect x="271.4" y="400.2" class="st12" width="73" height="27.7"/>
	</g>
	<g class="st0">
		<polygon class="st10" points="351.9,375.1 351.9,339.9 432.4,339.9 432.4,347.4 359.4,347.4 359.4,367.6 		"/>
		<polygon class="st11" points="351.9,375.1 359.4,367.6 432.4,367.6 432.4,339.9 439.9,339.9 439.9,375.1 		"/>
		<rect x="359.4" y="339.9" class="st12" width="73" height="27.7"/>
	</g>
</g>
</svg>
