<?xml version="1.0" encoding="utf-8"?>
<!-- Generator: Adobe Illustrator 23.0.0, SVG Export Plug-In . SVG Version: 6.00 Build 0)  -->
<svg version="1.1" id="Layer_1" xmlns="http://www.w3.org/2000/svg" xmlns:xlink="http://www.w3.org/1999/xlink" x="0px" y="0px"
	 viewBox="0 0 792 515.74" style="enable-background:new 0 0 792 515.74;" xml:space="preserve">
<style type="text/css">
	.st0{clip-path:url(#SVGID_2_);}
	.st1{fill:#939598;}
	.st2{fill:#A8AAAD;}
	.st3{fill:#D2D3D4;}
	.st4{fill:#DD8527;}
	.st5{fill:#E78C24;}
	.st6{fill:#F89521;}
	.st7{opacity:0.5;clip-path:url(#SVGID_2_);fill:#BCBEC0;}
	.st8{fill:#A7A9AC;}
	.st9{fill:#F69320;}
	.st10{fill:#B52025;}
	.st11{fill:#CE2127;}
	.st12{fill:#EC2527;}
</style>
<g>
	<defs>
		<rect id="SVGID_1_" width="792" height="515.74"/>
	</defs>
	<clipPath id="SVGID_2_">
		<use xlink:href="#SVGID_1_"  style="overflow:visible;"/>
	</clipPath>
	<rect x="-104.03" y="-183.5" class="st0" width="806.55" height="644.77"/>
	<g class="st0">
		<polygon class="st1" points="218.59,461.26 218.59,622.55 57.28,622.55 70.07,609.76 205.81,609.76 205.81,474.05 		"/>
		<rect x="70.07" y="474.05" class="st2" width="135.71" height="135.71"/>
		<polygon class="st3" points="218.59,461.26 205.81,474.05 70.07,474.05 70.07,609.76 57.28,622.55 57.28,461.26 		"/>
	</g>
	<g class="st0">
		<polygon class="st1" points="57.28,461.26 57.28,622.55 -104.03,622.55 -91.24,609.76 44.5,609.76 44.5,474.05 		"/>
		<rect x="-91.24" y="474.05" class="st2" width="135.71" height="135.71"/>
		<polygon class="st3" points="57.28,461.26 44.5,474.05 -91.24,474.05 -91.24,609.76 -104.03,622.55 -104.03,461.26 		"/>
	</g>
	<g class="st0">
		<polygon class="st1" points="863.83,461.26 863.83,622.55 702.52,622.55 715.31,609.76 851.05,609.76 851.05,474.05 		"/>
		<rect x="715.31" y="474.05" class="st2" width="135.71" height="135.71"/>
		<polygon class="st3" points="863.83,461.26 851.05,474.05 715.31,474.05 715.31,609.76 702.52,622.55 702.52,461.26 		"/>
	</g>
	<g class="st0">
		<polygon class="st1" points="863.82,299.98 863.82,461.26 702.51,461.26 715.29,448.48 851.03,448.48 851.03,312.77 		"/>
		<rect x="715.29" y="312.77" class="st2" width="135.71" height="135.71"/>
		<polygon class="st3" points="863.82,299.98 851.03,312.77 715.29,312.77 715.29,448.48 702.51,461.26 702.51,299.98 		"/>
	</g>
	<g class="st0">
		<polygon class="st1" points="863.81,138.7 863.81,299.98 702.5,299.98 715.28,287.19 851.02,287.19 851.02,151.48 		"/>
		<rect x="715.28" y="151.48" class="st2" width="135.71" height="135.71"/>
		<polygon class="st3" points="863.81,138.7 851.02,151.48 715.28,151.48 715.28,287.19 702.5,299.98 702.5,138.7 		"/>
	</g>
	<g class="st0">
		<polygon class="st1" points="863.83,-22.59 863.83,138.7 702.52,138.7 715.31,125.91 851.05,125.91 851.05,-9.8 		"/>
		<rect x="715.31" y="-9.8" class="st2" width="135.71" height="135.71"/>
		<polygon class="st3" points="863.83,-22.59 851.05,-9.8 715.31,-9.8 715.31,125.91 702.52,138.7 702.52,-22.59 		"/>
	</g>
	<g class="st0">
		<path class="st4" d="M218.07,218.5v0.03c0,44.44-36.04,80.48-80.48,80.48h-0.03c-16.21,0-31.3-4.79-43.91-13.06
			c11.18,5.91,23.92,9.23,37.43,9.23c22.23,0,42.35-8.99,56.91-23.57c14.55-14.55,23.57-34.67,23.57-56.91s-9.02-42.35-23.57-56.93
			c-3.93-3.93-8.27-7.46-12.95-10.49C200.63,160.74,218.07,187.6,218.07,218.5z"/>
		<path class="st5" d="M211.57,214.7c0,22.23-9.02,42.35-23.57,56.91c-14.55,14.58-34.67,23.57-56.91,23.57
			c-13.51,0-26.25-3.32-37.43-9.23c-22.02-14.34-36.57-39.17-36.57-67.42v-0.03c0-44.44,36.04-80.48,80.48-80.48h0.03
			c13.51,0,26.27,3.34,37.46,9.26c4.68,3.02,9.02,6.55,12.95,10.49C202.55,172.35,211.57,192.47,211.57,214.7z"/>
		<path class="st6" d="M133.87,205.93H93.93c-5.78,0-8.99-6.66-5.4-11.16l19.99-25.18c2.76-3.48,8.03-3.48,10.78,0l19.99,25.18
			C142.86,199.27,139.62,205.93,133.87,205.93z"/>
		<path class="st6" d="M186.63,238.43l-19.99,25.18c-2.76,3.48-8.03,3.48-10.78,0l-19.96-25.18c-3.59-4.49-0.37-11.16,5.38-11.16
			h39.97C187.01,227.27,190.22,233.94,186.63,238.43z"/>
		<path class="st6" d="M125.96,219.34v39.97c0,5.75-6.64,8.99-11.16,5.4L89.62,244.7c-3.48-2.76-3.48-8.03,0-10.78l25.18-19.96
			C119.32,210.37,125.96,213.58,125.96,219.34z"/>
		<path class="st6" d="M185.53,199.29l-25.18,19.96c-4.52,3.59-11.16,0.37-11.16-5.38V173.9c0-5.75,6.64-8.99,11.16-5.4l25.18,20.01
			C189.01,191.26,189.01,196.53,185.53,199.29z"/>
	</g>
	<g class="st0">
		<polygon class="st1" points="863.79,-183.5 863.79,-22.22 702.48,-22.22 715.27,-35.01 851.01,-35.01 851.01,-170.72 		"/>
		<rect x="715.27" y="-170.72" class="st2" width="135.71" height="135.71"/>
		<polygon class="st3" points="863.79,-183.5 851.01,-170.72 715.27,-170.72 715.27,-35.01 702.48,-22.22 702.48,-183.5 		"/>
	</g>
	<path class="st7" d="M193.48,107.87c24.72,9.91,38.81,36.99,32.61,62.89c-4.02,16.8-15.14,29.61-29.18,36.42
		c-6.26,3.04-19.62,5.53-27.93,6.2C59.17,226.03-3.88,325.93-56.23,415.91c-1.63,2.8-5.85,0.64-4.57-2.34
		C-14.65,306.6,54.16,210.48,131.03,123.95c5.08-5.6,12.17-11.52,18.43-14.56C162.71,102.96,178.56,101.89,193.48,107.87z"/>
	<g class="st0">
		<path class="st8" d="M279.01,139.05L279.01,139.05c-3.47,6.18-11.36,8.4-17.54,4.94l-42-23.55c-6.18-3.47-8.4-11.36-4.94-17.54
			l0,0c3.47-6.18,11.36-8.4,17.54-4.94l42,23.55C280.26,124.98,282.48,132.87,279.01,139.05z"/>
		<circle class="st8" cx="173.18" cy="158.29" r="54.35"/>
		<path class="st8" d="M254,154.11c3.97,1.38,7.47,3.49,10.41,6.14c2.93,2.65,5.3,5.82,7,9.33c3.4,7,4.12,15.3,1.37,23.24
			c-2.75,7.94-8.46,14.01-15.46,17.41c-3.5,1.7-7.33,2.73-11.27,2.99c-3.94,0.26-8-0.24-11.97-1.62l9.96-28.74l4.98-14.37
			L254,154.11z"/>
		<path class="st8" d="M241.93,232.81C241.93,232.81,241.93,232.81,241.93,232.81c2.09,3.16,2.17,7.73-0.28,11.44c0,0,0,0,0,0
			c-2.45,3.71-7.16,5.74-11.78,4.79l-30.59-4.21l-12.46-1.72c-4.75-0.32-12.89-6.04-12.57-10.79c0,0,0,0,0,0
			c-2.09-3.16-2.17-7.73,0.28-11.44c0,0,0,0,0,0c2.45-3.71,7.16-5.74,11.78-4.79l30.59,4.21l12.46,1.72
			C234.11,222.34,242.26,228.06,241.93,232.81z"/>
		<path class="st9" d="M194.01,115.95l-16.57,47.8c-2.83,8.17-11.83,12.54-20.01,9.71h0c-8.17-2.83-12.54-11.83-9.71-20.01
			l16.57-47.8c2.83-8.17,11.83-12.54,20.01-9.71l0,0C192.47,98.77,196.84,107.78,194.01,115.95z"/>
	</g>
	<g class="st0">
		<polygon class="st10" points="379.9,461.26 379.9,622.55 218.59,622.55 231.38,609.76 367.09,609.76 367.09,474.05 		"/>
		<rect x="231.38" y="474.05" class="st11" width="135.71" height="135.71"/>
		<polygon class="st12" points="379.9,461.26 367.09,474.05 231.38,474.05 231.38,609.76 218.59,622.55 218.59,461.26 		"/>
	</g>
	<g class="st0">
		<polygon class="st10" points="541.21,461.26 541.21,622.55 379.9,622.55 392.69,609.76 528.4,609.76 528.4,474.05 		"/>
		<rect x="392.69" y="474.05" class="st11" width="135.71" height="135.71"/>
		<polygon class="st12" points="541.21,461.26 528.4,474.05 392.69,474.05 392.69,609.76 379.9,622.55 379.9,461.26 		"/>
	</g>
	<g class="st0">
		<polygon class="st10" points="702.52,461.26 702.52,622.55 541.21,622.55 554,609.76 689.71,609.76 689.71,474.05 		"/>
		<rect x="554" y="474.05" class="st11" width="135.71" height="135.71"/>
		<polygon class="st12" points="702.52,461.26 689.71,474.05 554,474.05 554,609.76 541.21,622.55 541.21,461.26 		"/>
	</g>
</g>
</svg>
